<svg width="1351" height="1502" viewBox="0 0 1351 1502" fill="none" xmlns="http://www.w3.org/2000/svg">
<path opacity="0.1" d="M645.236 431.007C662.046 414.326 689.176 414.326 705.986 431.007L1209.22 935.648C1046.34 1291.43 679.526 1498.69 675.405 1501L675 1500.76C658.191 1491 300.799 1284.77 141.342 934.989L645.236 431.007ZM675.24 663.557L672.967 663.58C598.049 664.838 532.584 714.833 511.806 786.962C490.818 859.819 520.461 937.776 584.567 978.319L502.137 1226.19H848.837L766.407 978.319C830.716 937.797 860.442 859.645 839.304 786.666C818.166 713.686 751.264 663.485 675.24 663.557ZM675.405 1C972.894 1 1348.69 280.093 1348.69 280.093C1348.69 280.093 1367.32 504.075 1263.95 798.984L706.151 243.188C698.121 235.119 687.204 230.582 675.817 230.582C664.43 230.582 653.512 235.119 645.483 243.188L87.0202 799.314C-16.182 504.323 2.28231 280.34 2.28231 280.34C2.28231 280.34 370.602 6.6396 666.462 1.08566L675.405 1Z" stroke="#9C2D1F"/>
</svg>
