<?xml version="1.0" encoding="UTF-8"?>
<svg width="639px" height="604px" viewBox="0 0 639 604" version="1.1" xmlns="http://www.w3.org/2000/svg" xmlns:xlink="http://www.w3.org/1999/xlink">
    <!-- Generator: Sketch 63.1 (92452) - https://sketch.com -->
    <title>home_header_illustration</title>
    <desc>Created with Sketch.</desc>
    <g id="Dashboard" stroke="none" stroke-width="1" fill="none" fill-rule="evenodd">
        <g id="0.-HostShield---Home-Page" transform="translate(-1081.000000, -230.000000)">
            <g id="home_header_illustration" transform="translate(1075.000000, 230.000000)">
                <ellipse id="Oval" fill="#802418" fill-rule="nonzero" cx="298.560132" cy="573.863358" rx="93.7343259" ry="29.1705542"></ellipse>
                <ellipse id="Oval" fill="#802418" fill-rule="nonzero" cx="533.229446" cy="567.286022" rx="78.7877585" ry="25.2770885"></ellipse>
                <path d="M172.203805,387.614888 C180.938296,393.09909 189.408106,397.087841 197.385608,402.82349 L196.88536,402.82349 C198.380811,403.072291 199.129859,404.567742 199.627461,405.814392 L199.627461,405.316791 C208.361952,408.80794 217.33201,404.567742 226.058561,405.06799 C232.040364,399.332341 239.271464,404.070141 246.253763,404.567742 C241.267163,399.581141 236.529363,394.594541 230.296112,390.854591 C221.826303,385.86799 214.089661,381.132837 205.36311,376.395037 C194.892308,370.659388 184.418859,366.173036 173.948056,359.688337 C156.743755,348.968734 141.783954,338.746733 124.330852,327.775682 C117.351199,323.540778 111.626137,319.041191 104.884698,314.062531 C102.280232,312.246816 99.6757651,310.621671 97.0898263,309.099752 C100.091315,321.539785 102.738131,334.964433 105.093797,349.236063 C110.998842,352.467825 116.771547,355.924566 122.827461,359.190736 C139.790902,368.166088 155.497105,376.892639 172.203805,387.614888 Z" id="Path" fill="#D8BB8D" fill-rule="nonzero"></path>
                <path d="M421.216212,268.569065 C400.772208,219.036559 383.816708,11.4282878 383.816708,11.4282878 C383.816708,11.4282878 124.516129,44.8390405 65.6694789,56.7311828 C6.82282878,68.6233251 10.1181141,80.4837055 10.1181141,80.4837055 C-4.545244,102.169065 51.2072787,209.383623 73.1493797,245.380314 C83.0669975,261.642349 90.8459884,283.264185 97.0845327,309.107692 C99.6704715,310.642845 102.274938,312.254756 104.879404,314.070471 C111.610256,319.057072 117.345906,323.546071 124.325558,327.783623 C141.77866,338.754673 156.738462,348.976675 173.942763,359.696278 C184.413565,366.180976 194.887014,370.667328 205.357816,376.402978 C214.092308,381.140778 221.813069,385.875931 230.290819,390.862531 C236.524069,394.602481 241.261869,399.597022 246.24847,404.575682 C239.26617,404.078081 232.03507,399.340281 226.053267,405.075931 C217.318776,404.575682 208.348718,408.815881 199.622167,405.324731 L199.622167,405.822333 C199.124566,404.575682 198.375517,403.080232 196.880066,402.831431 L197.380314,402.831431 C189.400165,397.095782 180.922415,393.107031 172.198511,387.622829 C155.491811,376.900579 139.785608,368.174028 122.830108,359.198677 C116.766253,355.932506 110.993548,352.475765 105.096443,349.244003 C108.669644,370.908189 111.575848,394.531017 114.047974,419.681059 C121.527874,495.819355 145.960629,501.115633 165.396195,503.608933 C184.831762,506.102233 470.486683,417.322746 470.486683,417.322746 C470.486683,417.322746 441.660215,318.101572 421.216212,268.569065 Z" id="Path" fill="#FCF5EB" fill-rule="nonzero"></path>
                <path d="M61.7204301,86.0870141 L32.1766749,97.3200993 C32.1766749,97.3200993 42.263689,113.052771 53.0574028,112.790736 C63.8511166,112.528701 61.7204301,86.0870141 61.7204301,86.0870141 Z" id="Path" fill="#D3BA9F" fill-rule="nonzero"></path>
                <path d="M92.1614557,232.837055 C94.7252621,224.052282 98.0334108,215.502098 102.049959,207.279404 C106.854707,215.214196 112.553466,222.571874 119.034574,229.208271 L123.092142,217.03292 C125.606617,219.814723 128.891315,222.355666 132.639206,222.308023 C136.387097,222.26038 140.084698,218.361621 138.650124,214.89694 C141.461026,215.66055 143.863929,217.489073 145.349214,219.994706 C148.293595,216.779173 150.756868,213.154248 152.662366,209.232754 C154.79979,209.220016 156.86568,210.002036 158.458892,211.426964 C157.061108,204.332964 157.715778,196.987438 160.346071,190.25244 L170.40397,206.818859 C169.271391,190.939563 171.636795,175.005157 177.333333,160.13962 C181.660877,160.338131 184.199173,164.962117 185.882548,168.953515 L199.953019,202.327213 C199.491134,197.858728 200.033721,193.343503 201.541108,189.111663 L208.08933,197.787924 C209.51119,193.43778 211.348619,189.234651 213.576179,185.236725 C216.442414,186.890044 218.671595,189.456584 219.907361,192.526055 C220.057378,189.804893 221.083329,187.205199 222.832093,185.114971 L226.987593,191.289992 C227.747229,187.182134 232.580314,185.466998 236.64847,184.506203 C284.100579,173.400165 331.858837,163.726937 379.923242,155.486518" id="Path" stroke="#B7813B" stroke-width="2.27096774"></path>
                <path d="M59.3012407,170.52043 C61.5297379,159.002874 64.544457,147.651471 68.3242349,136.545906 C79.3826303,143.062366 77.1222498,160.872787 86.5290323,169.607279 C88.6628491,162.79364 89.5540087,155.651812 89.1599669,148.522746 L96.0416873,163.101406 C97.0712986,165.285029 99.0087676,167.884202 101.279735,167.071629 C102.67196,166.568734 103.299256,164.988586 103.762448,163.583127 L106.912159,154.041356 L112.557816,162.624979 L116.358644,153.527874 L121.088503,161.373036 C122.941274,158.490653 124.899917,155.491811 127.91464,153.882548 C130.929363,152.273284 135.293962,152.643838 137.035567,155.587097 C138.150014,152.696058 139.822863,150.052775 141.958644,147.808106 L147.781638,154.088999 C149.772043,148.160132 156.251447,145.208933 162.074442,142.919438 C166.044665,141.360463 170.014888,139.801489 173.985112,138.284864 C215.540116,122.448966 258.714971,111.350868 301.781307,100.289826 C321.807113,95.1444169 341.869975,89.9937138 362.298098,86.791067 L356.520099,89.0170389" id="Path" stroke="#B7813B" stroke-width="2.27096774"></path>
                <path d="M8.24060526,83.0934657 C8.24060526,83.0934657 22.4522746,59.1609595 42.6501241,81.5980149 C52.7477254,98.4264682 50.5032258,105.030273 46.7632754,110.712986 C46.7632754,110.712986 58.3563275,121.249959 107.722084,97.3174524 C151.476592,80.4863524 364.267328,37.7641026 399.795533,42.1048801 C408.021836,23.2701406 399.419686,1.20628619 379.973532,0.457237386 C379.973532,0.457237386 180.647146,27.756493 151.103391,33.3677419 C121.559636,38.9789909 7.86832093,58.0387097 8.24060526,83.0934657 Z" id="Path" fill="#E5D0B7" fill-rule="nonzero"></path>
                <path d="M203.801489,400.878081 L218.263689,402.124731 C219.328435,401.308933 220.476481,400.608039 221.688668,400.033747 C216.14359,397.12225 210.46617,394.427792 204.828453,391.685691 C204.255755,394.71968 203.912461,397.792508 203.801489,400.878081 L203.801489,400.878081 Z" id="Path" fill="#CE680D" fill-rule="nonzero"></path>
                <path d="M232.003309,398.885029 C234.509843,399.679074 236.558478,400.425476 238.157155,401.042184 C228.080728,394.883044 217.776675,389.155335 207.488503,383.308519 C206.210091,385.788586 205.37105,388.829777 204.841687,391.680397 C210.479404,394.422498 216.156824,397.119603 221.701902,400.028453 C224.306369,398.77651 228.109843,397.638379 232.003309,398.885029 Z" id="Path" fill="#DD9226" fill-rule="nonzero"></path>
                <path d="M245.938792,404.615385 C251.674442,403.119934 245.938792,400.875434 245.938792,400.875434 L215.521588,378.186931 C211.776344,377.604632 209.224814,379.94177 207.488503,383.311166 C217.774028,389.152688 228.080728,394.880397 238.157155,401.04483 C241.02895,402.156493 242.447643,402.876427 242.447643,402.876427 C242.317976,403.072602 242.211397,403.283094 242.130025,403.503722 C242.889661,403.980149 243.644003,404.459222 244.400993,404.940943 C244.919417,404.862036 245.432868,404.753337 245.938792,404.615385 L245.938792,404.615385 Z" id="Path" fill="#F4C269" fill-rule="nonzero"></path>
                <path d="M215.754508,386.744086 C175.562614,357.324731 137.744913,330.758644 99.0934657,303.44086 C95.3508685,307.244334 93.4954508,312.61737 92.5902399,317.468983 C132.340116,343.672457 173.630438,367.401158 212.210422,395.097436 C214.097713,392.668334 215.319232,389.789236 215.754508,386.744086 L215.754508,386.744086 Z" id="Path" fill="#677C7C" fill-rule="nonzero"></path>
                <path d="M92.5902399,317.482217 C91.8777793,321.385651 91.6307827,325.359809 91.8544251,329.321423 C91.8544251,329.321423 194.81555,396.640529 203.814723,400.878081 C207.694955,399.485856 210.378825,397.437221 212.223656,395.11067 C173.627792,367.414392 132.337469,343.688337 92.5902399,317.482217 Z" id="Path" fill="#30484C" fill-rule="nonzero"></path>
                <path d="M215.521588,378.189578 L108.558478,298.655418 C104.963533,299.167775 101.637284,300.849503 99.0934657,303.44086 C137.736973,330.758644 175.562614,357.324731 215.754508,386.744086 C216.193897,383.901902 216.114984,381.003642 215.521588,378.189578 L215.521588,378.189578 Z" id="Path" fill="#536668" fill-rule="nonzero"></path>
                <path d="M28.5055418,242.468817 L24.9085194,251.629446 C51.2840364,268.812572 78.1677419,285.154012 103.974194,302.879735 C104.513681,300.639347 104.808322,298.347006 104.852936,296.043011 L28.5055418,242.468817 Z" id="Path" fill="#4F4136" fill-rule="nonzero"></path>
                <path d="M108.558478,298.655418 L104.852936,296.053598 C104.808322,298.357593 104.513681,300.649935 103.974194,302.890323 C105.894017,304.211966 107.808547,305.535374 109.717786,306.860546 C109.718955,304.084607 109.328677,301.32237 108.558478,298.655418 Z" id="Path" fill="#F4C269" fill-rule="nonzero"></path>
                <path d="M18.9214227,266.890984 L14.4483044,278.290819 L85.2797353,324.988586 C88.5141439,322.958478 91.8253102,321.198346 94.7023987,318.752688 C69.3670802,301.521919 43.6426799,284.931679 18.9214227,266.890984 Z" id="Path" fill="#3D3630" fill-rule="nonzero"></path>
                <path d="M85.2797353,324.988586 L91.8544251,329.321423 C96.3725393,328.029777 99.7948718,326.169065 102.362283,323.990736 C99.8125172,322.235015 97.2592225,320.488999 94.7023987,318.752688 C91.8253102,321.198346 88.5141439,322.958478 85.2797353,324.988586 Z" id="Path" fill="#CE680D" fill-rule="nonzero"></path>
                <path d="M97.3995037,316.05823 C100.561441,312.225139 102.808137,307.721789 103.9689,302.890323 C78.1624483,285.156658 51.2787428,268.82316 24.9032258,251.640033 L18.916129,266.890984 C43.6373863,284.931679 69.3617866,301.521919 94.697105,318.752688 C95.671044,317.931006 96.5749589,317.029747 97.3995037,316.05823 L97.3995037,316.05823 Z" id="Path" fill="#605750" fill-rule="nonzero"></path>
                <path d="M103.974194,302.890323 C102.813431,307.721789 100.566735,312.225139 97.4047974,316.05823 C96.5802525,317.029747 95.6763376,317.931006 94.7023987,318.752688 C97.2592225,320.492528 99.8125172,322.238544 102.362283,323.990736 C108.344086,318.922084 109.736311,312.14359 109.717783,306.871133 C107.810312,305.537138 105.895782,304.210201 103.974194,302.890323 Z" id="Path" fill="#DD9226" fill-rule="nonzero"></path>
                <ellipse id="Oval" fill="#58BCB9" fill-rule="nonzero" transform="translate(21.490327, 260.410588) rotate(-68.570000) translate(-21.490327, -260.410588) " cx="21.4903274" cy="260.410588" rx="19.2397022" ry="14.7771712"></ellipse>
                <ellipse id="Oval" fill="#7ADDD8" fill-rule="nonzero" transform="translate(21.490327, 260.410588) rotate(-68.570000) translate(-21.490327, -260.410588) " cx="21.4903274" cy="260.410588" rx="9.33531844" ry="7.17022333"></ellipse>
                <path d="M22.3569892,294.865178 C20.8615385,293.867328 18.8658395,292.123077 19.3634409,290.365591 C20.2157155,287.816708 23.2383788,286.895616 25.8110835,285.601323 L20.4406948,282.231927 C20.4406948,282.231927 9.32406948,286.180976 11.8200165,293.909677 C13.937469,300.468486 55.7412738,318.413896 65.5980149,328.08536 C64.9177833,326.645492 63.7690653,325.303557 62.7473945,324.027792 C51.0299421,311.32043 35.5698925,305.833581 22.3569892,294.865178 Z" id="Path" fill="#677C7C" fill-rule="nonzero"></path>
                <path d="M79.401158,326.330521 C70.1637717,318.593879 19.0537634,295.91067 27.5235732,286.686518 L25.8057899,285.609264 C23.2330852,286.906203 20.2104218,287.827295 19.3581472,290.373532 C18.8605459,292.12043 20.8562448,293.864682 22.3516956,294.873118 C35.5645988,305.841522 51.0246485,311.328371 62.7421009,324.043672 C63.7637717,325.319438 64.9124897,326.661373 65.5927213,328.101241 C67.3502068,329.824318 68.093962,331.277419 67.4137304,332.370554 C62.9326716,339.543424 84.3533499,334.829446 79.401158,326.330521 Z" id="Path" fill="#30484C" fill-rule="nonzero"></path>
                <path d="M149.687345,499.924566 C149.687345,499.924566 174.879735,502.507858 159.422333,471.140447 C172.391729,468.197188 470.49727,386.810256 470.49727,386.810256 C470.49727,386.810256 486.378164,405.319438 470.49727,417.312159 L189.839537,503.653929 C189.839537,503.653929 168.876758,511.205294 149.687345,499.924566 Z" id="Path" fill="#E5D0B7" fill-rule="nonzero"></path>
                <path d="M320.020513,167.058395 C320.020513,167.058395 259.162283,162.431762 257.796526,122.411911 C256.430769,82.3920596 316.629942,52.4777502 378.3378,70.0578991 C440.045658,87.638048 462.106865,162.802316 342.060546,164.673615 C342.060546,164.673615 327.476592,179.567246 327.476592,185.771381 C322.987593,184.86617 320.020513,167.058395 320.020513,167.058395 Z" id="Path" fill="#BCA68B" fill-rule="nonzero"></path>
                <path d="M324.805955,164.88536 C324.805955,164.88536 263.950372,160.253433 262.579322,120.238875 C261.208271,80.2243176 321.418031,50.3073615 383.123242,67.8822167 C444.828453,85.457072 466.894955,160.62928 346.848635,162.497932 C346.848635,162.497932 332.262035,177.391563 332.262035,183.595699 C327.775682,182.693135 324.805955,164.88536 324.805955,164.88536 Z" id="Path" fill="#EFDCA8" fill-rule="nonzero"></path>
                <path d="M402.474111,347.722084 C402.474111,347.722084 391.66981,346.64483 386.593218,351.546733 C381.516625,356.448635 372.753019,358.833416 381.109016,366.503888 C391.246319,375.812738 413.18842,359.439537 413.18842,359.439537 L402.474111,347.722084 Z" id="Path" fill="#DB846A" fill-rule="nonzero"></path>
                <path d="M385.373036,358.693135 C382.130687,357.944086 377.893135,358.428453 376.397684,355.951034 C374.449628,353.039537 375.391894,349.333995 376.373863,345.736973 C372.403639,345.313482 369.433912,345.112324 369.433912,345.112324 C369.433912,345.112324 365.199007,355.170223 370.847312,358.08172 C376.495616,360.993218 387.718114,361.73962 387.718114,361.73962 C387.718114,361.73962 392.950868,372.639206 398.13598,371.839868 C395.531514,365.924235 392.146237,360.254756 385.373036,358.693135 Z" id="Path" fill="#E59883" fill-rule="nonzero"></path>
                <path d="M396.783457,350.681224 C394.991563,348.129694 383.874938,346.536311 376.379156,345.736973 C375.397188,349.347229 374.454921,353.02895 376.402978,355.951034 C377.898428,358.441687 382.13598,357.944086 385.378329,358.693135 C392.146237,360.254756 395.531514,365.924235 398.141274,371.834574 C398.598204,371.762018 399.037855,371.605896 399.438213,371.374028 C405.00976,368.216377 399.525558,354.590571 396.783457,350.681224 Z" id="Path" fill="#F7CCC4" fill-rule="nonzero"></path>
                <path d="M242.130025,403.501075 C241.865343,404.234243 241.865343,405.298263 244.400993,404.938296 C243.644003,404.456576 242.889661,403.977502 242.130025,403.501075 Z" id="Path" fill="#D1A128" fill-rule="nonzero"></path>
                <path d="M328.003309,571.520926 C306.783788,574.085691 285.138131,575.649959 264.964103,569.218197 L264.252109,572.489661 C276.218362,577.725062 328.328867,577.6933 332.566419,574.840033 C333.688668,574.085691 331.666501,572.952854 328.003309,571.520926 Z" id="Path" fill="#1E1E23" fill-rule="nonzero"></path>
                <path d="M328.003309,571.520926 C317.826303,567.577171 294.976344,561.513317 291.678412,555.809429 C287.178825,548.05426 267.243011,558.985608 267.243011,558.985608 C267.243011,558.985608 266.840695,560.616046 264.964103,569.20761 C285.138131,575.649959 306.783788,574.085691 328.003309,571.520926 Z" id="Path" fill="#363549" fill-rule="nonzero"></path>
                <path d="M301.140778,242.759967 L269.558974,229.629115 L269.175186,238.25244 C277.798511,244.758313 288.907196,246.822829 300.013234,247.545409 L301.140778,242.759967 Z" id="Path" fill="#D87D71" fill-rule="nonzero"></path>
                <path d="M269.177833,238.25244 L268.730521,248.246816 L296.987924,260.379818 L300.015881,247.545409 C288.907196,246.822829 277.798511,244.747725 269.177833,238.25244 Z" id="Path" fill="#F7CCC4" fill-rule="nonzero"></path>
                <path d="M350.998842,583.063689 C341.449132,579.138462 317.037552,572.841687 313.617866,566.931348 C309.11828,559.173532 289.185112,570.107527 289.185112,570.107527 C289.185112,570.107527 288.793383,571.695616 286.977667,579.99603 C307.741935,585.556989 329.525227,585.128205 350.998842,583.063689 Z" id="Path" fill="#363549" fill-rule="nonzero"></path>
                <path d="M350.998842,583.063689 C329.519934,585.114971 307.741935,585.556989 286.977667,580.00397 C286.742101,581.089165 286.480066,582.282878 286.183623,583.608933 C298.152523,588.844334 350.26038,588.812572 354.500579,585.961952 C355.516956,585.28172 353.981803,584.289165 350.998842,583.063689 Z" id="Path" fill="#1E1E23" fill-rule="nonzero"></path>
                <path d="M284.150868,188.402316 C274.926716,189.897767 269.439868,196.628619 262.446981,201.86402 C261.584119,202.581307 260.395699,202.557486 259.111993,202.393383 C259.731348,202.973036 268.336146,210.685856 280.101241,202.523077 C292.318941,194.053267 308.774194,202.189578 313.260546,204.516129 C318.106865,202.57866 320.740447,198.428453 319.435567,192.983954 C317.302636,191.355191 314.886965,190.134792 312.310339,189.384285 C302.85062,186.655418 293.875269,186.655418 284.150868,188.402316 Z" id="Path" fill="#B25719" fill-rule="nonzero"></path>
                <path d="M269.725724,180.430108 C251.608271,185.083209 259.088172,202.369562 259.088172,202.369562 L259.125227,202.406617 C260.408933,202.557486 261.597353,202.581307 262.460215,201.877254 C269.439868,196.641853 274.926716,189.911001 284.164103,188.41555 C293.888503,186.668652 302.863854,186.668652 312.336807,189.410753 C314.913433,190.16126 317.329104,191.381659 319.462035,193.010422 C318.975021,190.980314 317.948056,188.775517 316.285856,186.425145 C310.116129,177.783292 282.358974,178.601158 269.725724,180.430108 Z" id="Path" fill="#D17333" fill-rule="nonzero"></path>
                <path d="M303.604963,422.290819 L302.646816,408.082713 L266.745409,412.338792 L266.954508,419.882217 C268.227062,420.42121 269.560157,420.804253 270.924731,421.022994 C281.738098,422.649015 292.698123,423.074208 303.604963,422.290819 Z" id="Path" fill="#844E76" fill-rule="nonzero"></path>
                <path d="M270.935318,421.025641 C269.570745,420.8069 268.23765,420.423857 266.965095,419.884864 L269.000496,492.672291 L257.780645,561.428619 C257.780645,561.428619 277.975848,567.91067 299.915302,563.175517 L307.895451,485.888503 L303.61555,422.3067 C292.708223,423.08571 281.748196,422.656079 270.935318,421.025641 Z" id="Path" fill="#A0678E" fill-rule="nonzero"></path>
                <path d="M266.393383,259.503722 C266.393383,259.503722 240.732506,306.540281 236.219686,326.026137 C231.706865,345.511993 267.536807,388.655087 267.536807,388.655087 L287.692308,366.932672 L266.92804,320.843672 L289.99239,282.496609 C289.99239,282.496609 289.748883,247.825972 266.393383,259.503722 Z" id="Path" fill="#D8CA4E" fill-rule="nonzero"></path>
                <path d="M321.849462,420.633912 L321.849462,412.338792 L272.232258,414.088337 L272.743093,419.516956 C274.194604,419.896756 275.676113,420.150906 277.171216,420.276592 C292.109843,421.097105 307.04847,421.819686 321.849462,420.633912 Z" id="Path" fill="#593952" fill-rule="nonzero"></path>
                <path d="M277.168569,420.276592 C275.673466,420.150906 274.191957,419.896756 272.740447,419.516956 L278.97105,485.623821 L278.97105,570.115467 C278.97105,570.115467 308.390405,576.57105 321.849462,570.115467 L321.849462,420.633912 C307.04847,421.819686 292.109843,421.097105 277.168569,420.276592 Z" id="Path" fill="#77446A" fill-rule="nonzero"></path>
                <path d="M278.666667,231.286022 C275.424318,227.29727 276.173366,222.061869 275.424318,217.324069 C283.153019,215.328371 297.86402,211.090819 291.87957,200.61737 C293.375021,200.61737 294.870471,200.882051 296.114475,201.615219 C300.365261,203.547395 305.066005,205.177833 309.634409,204.074111 C309.808591,202.71272 310.080144,201.365567 310.446981,200.043011 C273.214227,181.59206 268.031762,213.173863 268.031762,213.173863 C268.031762,213.173863 257.256576,212.009264 257.555666,224.819851 C257.854756,237.630438 270.178329,233.509347 271.552026,233.130852 C272.713978,238.615054 279.113978,242.765261 291.16493,244.101902 C299.35153,245.00976 305.817701,246.087014 308.551861,244.760959 C297.260546,243.090819 285.871299,240.578991 278.666667,231.286022 Z" id="Path" fill="#E59883" fill-rule="nonzero"></path>
                <path d="M319.260877,222.694458 C318.612407,219.955004 312.246816,216.696774 310.449628,212.840364 C309.208271,210.193548 309.290323,206.72622 309.637055,204.074111 C305.068652,205.177833 300.373201,203.544748 296.117122,201.615219 C294.870471,200.868817 293.375021,200.61737 291.882217,200.61737 C297.866667,211.090819 283.147725,215.328371 275.426964,217.324069 C276.176013,222.061869 275.426964,227.29727 278.669313,231.286022 C285.873945,240.578991 297.263193,243.090819 308.557155,244.750372 C309.586766,244.250124 310.089661,243.426964 309.952026,242.103557 C309.454425,237.283706 309.621175,236.786104 309.621175,236.786104 L302.79239,233.120265 L310.439041,233.120265 L310.603143,228.964764 C310.603143,228.964764 310.796361,228.909181 311.158974,228.771547 C309.173283,227.844118 307.141397,227.018995 305.071299,226.299421 C310.171712,226.519107 314.663358,224.393714 319.260877,222.694458 Z" id="Path" fill="#F7CCC4" fill-rule="nonzero"></path>
                <path d="M305.09512,226.299421 C307.165218,227.018995 309.197105,227.844118 311.182796,228.771547 C312.217701,228.377171 314.660711,227.315798 318.106865,224.976013 C319.165591,224.258726 319.464682,223.49909 319.274111,222.694458 C314.663358,224.393714 310.171712,226.519107 305.09512,226.299421 Z" id="Path" fill="#E59883" fill-rule="nonzero"></path>
                <path d="M267.232423,247.415715 C267.232423,247.415715 250.610422,280.659719 252.603474,298.276923 C254.596526,315.894127 259.088172,353.960629 259.088172,353.960629 L258.090323,413.966584 C258.090323,413.966584 311.44483,420.684202 329.729032,415.080893 C329.729032,415.080893 322.085029,357.785277 322.085029,350.636228 C322.085029,343.487179 319.088834,309.875269 319.088834,309.875269 C319.088834,309.875269 307.622829,251.894127 267.232423,247.415715 Z" id="Path" fill="#BAA031" fill-rule="nonzero"></path>
                <polygon id="Path" fill="#F7F7E4" fill-rule="nonzero" points="268.034409 239.935815 303.467328 254.064516 304.962779 264.868817 267.232423 245.372374"></polygon>
                <path d="M267.232423,242.759967 C267.232423,242.759967 301.4134,256.835732 309.78263,270.519768 C318.42713,284.64847 319.311166,314.067825 319.311166,314.067825 L301.135484,283.483871 L301.135484,272.67957 L294.322581,276.00397 C294.322581,276.00397 270.220678,251.070968 264.736476,250.573366 L267.232423,242.759967 Z" id="Path" fill="#937703" fill-rule="nonzero"></path>
                <path d="M258.090323,197.052109 C258.090323,197.052109 284.852275,193.891811 287.509677,201.204963 C290.16708,208.518114 285.016377,211.178164 277.536476,211.178164 C270.056576,211.178164 271.713482,223.811414 271.713482,223.811414 C271.713482,223.811414 267.06038,213.838213 262.407279,220.320265 C257.754177,226.802316 264.069479,232.622663 271.54938,233.120265 C270.882382,235.280066 269.72043,238.106865 269.72043,238.106865 L261.25062,238.106865 C261.25062,238.106865 255.599669,228.964764 251.277419,223.313813 C246.95517,217.662862 244.459222,199.876261 258.090323,197.052109 Z" id="Path" fill="#D17333" fill-rule="nonzero"></path>
                <path d="M374.425806,346.827461 L374.857237,342.491977 L317.513978,329.787262 L286.098925,278.507858 C284.172498,276.838923 281.864286,275.670726 279.37866,275.1067 C289.86005,293.105045 299.679735,311.315136 308.83507,330.030769 C330.63689,336.224318 352.441356,341.795864 374.425806,346.827461 Z" id="Path" fill="#D1B333" fill-rule="nonzero"></path>
                <path d="M308.83507,330.020182 C299.679735,311.304549 289.86005,293.086518 279.37866,275.096112 C275.903391,274.373532 271.504384,275.003474 267.232423,279.91067 C264.649132,282.87775 263.526882,286.263027 263.113978,289.322746 C273.206286,309.901737 287.626137,328.15153 302.60182,345.477585 C325.496774,352.888668 349.643672,353.359801 373.734988,353.730356 L374.425806,346.827461 C352.441356,341.795864 330.63689,336.224318 308.83507,330.020182 Z" id="Path" fill="#BAA031" fill-rule="nonzero"></path>
                <path d="M302.60182,345.477585 C287.626137,328.15153 273.206286,309.901737 263.113978,289.322746 C262.723049,292.314932 262.908123,295.354278 263.659222,298.276923 C263.659222,298.276923 295.571878,350.969727 307.884864,353.960629 C320.197849,356.95153 372.864185,362.430438 372.864185,362.430438 L373.734988,353.722415 C349.641026,353.359801 325.496774,352.886022 302.60182,345.477585 Z" id="Path" fill="#A58A1C" fill-rule="nonzero"></path>
                <path d="M299.367411,211.720761 C300.399669,210.259719 301.765426,208.475765 303.79818,208.952192 C305.466475,209.335012 306.857623,210.480086 307.554012,212.043672 C307.717083,212.318647 308.070706,212.411768 308.348056,212.252771 C308.617096,212.085271 308.708806,211.737008 308.557155,211.458726 C307.679748,209.548404 305.934015,208.179221 303.869644,207.782299 C302.744341,207.584564 301.587337,207.860406 300.672291,208.544582 C299.719438,209.232754 299.033912,210.182961 298.361621,211.135815 C298.202624,211.413165 298.295745,211.766788 298.57072,211.929859 C298.848647,212.084381 299.198987,211.992125 299.364764,211.720761 L299.367411,211.720761 Z" id="Path" fill="#000000" fill-rule="nonzero"></path>
                <path d="M302.173036,216.8 L303.742597,214.417866 C303.930521,214.137304 304.115798,213.769396 304.483706,213.705873 C304.821227,213.672043 305.160712,213.747175 305.45244,213.920265 C306.693797,214.558147 307.305211,215.963606 307.64665,217.244665 L308.207775,216.506203 C308.165426,216.506203 308.025145,216.177998 308.001323,216.119768 C307.903889,215.865085 307.765293,215.62813 307.591067,215.418362 C307.146402,214.926055 306.344417,214.769892 305.915633,215.37072 C305.555666,215.873615 305.574194,216.646485 305.674773,217.22349 C305.793148,217.850711 306.083656,218.432643 306.513813,218.904218 C306.742932,219.127116 307.107854,219.127116 307.336973,218.904218 C308.127187,218.129177 308.161132,216.867357 307.41373,216.050951 C307.184051,215.829437 306.82025,215.829437 306.590571,216.050951 C306.228116,216.387396 306.080563,216.896199 306.206782,217.374359 L306.357651,216.80794 C306.096783,217.086607 306.080325,217.514623 306.319025,217.812499 C306.557724,218.110375 306.97904,218.187586 307.307858,217.993714 C307.57576,217.825376 307.667204,217.478119 307.516956,217.199669 C307.352966,216.925916 307.00046,216.833089 306.722911,216.990571 L306.767907,216.97469 L307.077585,216.97469 L307.294624,217.416708 L307.146402,217.68139 C307.344913,217.461704 307.315798,217.345244 307.331679,217.075269 C307.331679,216.977337 307.331679,216.97469 307.416377,216.892639 L306.593218,216.892639 C306.895334,217.250475 306.861473,217.782905 306.51646,218.099586 L307.33962,218.099586 C306.926478,217.631016 306.727857,217.011165 306.791729,216.389744 C306.791729,216.310339 306.831431,216.225641 306.836725,216.148883 C306.842018,216.072126 306.879074,216.032423 306.836725,216.077419 C306.627626,216.077419 306.558809,216.111828 306.63292,216.140943 C306.721235,216.226036 306.799395,216.321072 306.86584,216.424152 C306.955831,216.612076 307.016708,216.813234 307.130521,216.993218 C307.34146,217.398444 307.751496,217.661391 308.207775,217.684036 C308.388824,217.68279 308.559091,217.597776 308.668879,217.453808 C308.778668,217.309841 308.815601,217.123148 308.7689,216.948222 C308.321588,215.291315 307.445492,213.525889 305.785939,212.811249 C305.348508,212.606143 304.864091,212.522056 304.383127,212.567742 C303.830723,212.644222 303.337466,212.95347 303.027957,213.41737 C302.363606,214.311993 301.783954,215.270141 301.175186,216.212407 C300.759636,216.837055 301.765426,217.422002 302.180976,216.8 L302.173036,216.8 Z" id="Path" fill="#000000" fill-rule="nonzero"></path>
                <path d="M302.196857,233.469644 C304.918494,234.232018 307.790388,234.282147 310.536973,233.615219 C311.264847,233.437883 310.957816,232.315633 310.227295,232.492969 C307.683913,233.108304 305.024912,233.058169 302.506534,232.347395 C301.783954,232.146237 301.474276,233.268486 302.196857,233.469644 L302.196857,233.469644 Z" id="Path" fill="#B75160" fill-rule="nonzero"></path>
                <path d="M303.117949,234.033416 L309.229446,237.331348 C309.888503,237.686022 310.476096,236.680232 309.817039,236.325558 L303.702895,233.027626 C303.043838,232.672953 302.456245,233.678743 303.117949,234.033416 Z" id="Path" fill="#B75160" fill-rule="nonzero"></path>
                <path d="M272.105211,229.226799 C271.721423,226.521754 270.326551,223.041191 267.544748,221.998346 C265.011745,221.050786 262.5555,222.882382 262.346402,225.468321 C262.304053,225.971216 263.090157,225.968569 263.140447,225.468321 C263.391894,222.360959 266.81158,221.805128 268.783457,223.750538 C269.031746,223.997476 269.260914,224.262921 269.468983,224.544582 C268.786666,224.124033 267.977022,223.959852 267.184781,224.08139 C265.33201,224.346071 264.654425,225.822994 264.424152,227.52225 C264.355335,228.014557 265.112324,228.22895 265.181141,227.731348 C265.350538,226.487345 265.649628,225.259222 267.049793,224.91249 C268.449959,224.565757 269.723077,225.399504 270.270968,226.685856 C270.301218,226.77053 270.366776,226.837875 270.450606,226.870391 C270.534435,226.902906 270.628258,226.897382 270.707692,226.855252 C271.016584,227.696011 271.234859,228.567337 271.358809,229.454425 C271.417039,229.925558 272.174028,229.721754 272.105211,229.226799 Z" id="Path" fill="#C6634B" fill-rule="nonzero"></path>
                <path d="M389.60794,346.973036 C393.09909,346.973036 397.336642,350.464185 401.32804,348.471133 C402.299995,347.973096 403.109811,347.20827 403.662531,346.266336 C403.524897,345.909016 403.421671,345.694624 403.421671,345.694624 L386.21737,343.034574 C386.21737,343.034574 379.05244,348.801985 381.368404,353.357155 C385.285691,352.55517 386.209429,346.973036 389.60794,346.973036 Z" id="Path" fill="#F2CDB3" fill-rule="nonzero"></path>
                <path d="M401.33598,348.471133 C397.344582,350.464185 393.107031,346.973036 389.615881,346.973036 C386.209429,346.973036 385.285691,352.55517 381.378991,353.365095 L381.408106,353.423325 C383.816708,357.994376 390.142597,349.18842 390.142597,349.18842 C390.142597,349.18842 395.129198,356.472457 401.02895,354.746733 C405.928205,353.309512 404.35335,348.026468 403.675765,346.276923 C403.120045,347.21569 402.308463,347.976778 401.33598,348.471133 L401.33598,348.471133 Z" id="Path" fill="#E5A889" fill-rule="nonzero"></path>
                <path d="M469.226799,76.0211745 C469.226799,76.0211745 449.404797,136.604136 463.61555,145.206286 C477.826303,153.808437 537.7555,159.784946 537.7555,159.784946 C537.7555,159.784946 540.796691,168.387097 531.749876,175.117949 L555.240364,167.638048 C555.240364,167.638048 618.067825,179.2311 625.910339,175.117949 C633.752854,171.004797 649.845492,108.926385 643.11464,101.070637 C636.383788,93.2148883 474.369562,57.9222498 469.226799,76.0211745 Z" id="Path" fill="#88A09C" fill-rule="nonzero"></path>
                <path d="M463.866998,72.4400331 C463.866998,72.4400331 444.047643,133.022994 458.258395,141.625145 C472.469148,150.227295 532.395699,156.209098 532.395699,156.209098 C532.395699,156.209098 535.43689,164.811249 526.390074,171.542101 L549.880562,164.0622 C549.880562,164.0622 612.708023,175.655252 620.550538,171.542101 C628.393052,167.42895 644.485691,105.347891 637.754839,97.4947891 C631.023987,89.6416873 469.012407,54.3331679 463.866998,72.4400331 Z" id="Path" fill="#B4D1C3" fill-rule="nonzero"></path>
                <path d="M510.056576,549.862035 C510.056576,549.862035 494.408602,558.747395 478.699752,565.711166 C480.944251,574.546237 535.241026,562.204136 535.241026,562.204136 L535.241026,542.008933 L510.056576,549.862035 Z" id="Path" fill="#48515B" fill-rule="nonzero"></path>
                <path d="M540.741108,556.968734 C540.741108,556.968734 515.625476,576.041687 504.090653,583.521588 C515.686352,588.381141 557.196361,577.169231 557.196361,577.169231 L555.690323,558.84268 L540.741108,556.968734 Z" id="Path" fill="#131923" fill-rule="nonzero"></path>
                <path d="M492.164103,396.622002 L505.6311,550.984285 C505.6311,550.984285 516.610091,561.081886 532.435401,550.984285 L529.674773,386.810256 L492.164103,396.622002 Z" id="Path" fill="#721515" fill-rule="nonzero"></path>
                <path d="M522.028122,236.156162 L495.84847,240.893962 C495.84847,240.893962 496.377833,247.119272 497.050124,253.715136 C498.813051,254.353362 500.691071,254.611342 502.560794,254.472126 C509.216062,254.023814 515.772274,252.620758 522.028122,250.306038 C522.306038,242.894955 522.028122,236.156162 522.028122,236.156162 Z" id="Path" fill="#DB7163" fill-rule="nonzero"></path>
                <path d="M497.050124,253.715136 C497.579487,258.876427 498.209429,264.262696 498.75732,267.073615 C500.00397,273.473615 515.712821,274.802316 519.368073,267.489165 C521.088503,264.048304 521.779322,256.901902 522.028122,250.313978 C515.771871,252.625988 509.21567,254.026368 502.560794,254.472126 C500.691071,254.611342 498.813051,254.353362 497.050124,253.715136 L497.050124,253.715136 Z" id="Path" fill="#E5A78F" fill-rule="nonzero"></path>
                <path d="M506.478081,384.565757 L529.674773,564.448635 C529.674773,564.448635 549.314144,569.684036 557.201654,558.837386 L549.038875,396.391729 C549.038875,396.391729 512.989247,351.398511 506.478081,384.565757 Z" id="Path" fill="#3A0B08" fill-rule="nonzero"></path>
                <path d="M451.699586,324.284533 C433.98445,331.454756 416.9866,340.22895 399.493797,347.743259 C399.779653,351.319107 401.447146,358.656079 409.702564,365.476923 C418.926716,363.481224 463.305873,337.891811 463.305873,337.891811 L500.456576,296.752357 C500.456576,296.752357 501.84086,282.724235 496.616046,275.201985 C482.556162,292.512159 469.409429,310.624318 451.699586,324.284533 Z" id="Path" fill="#AF533E" fill-rule="nonzero"></path>
                <path d="M485.663524,270.699752 L454.330521,316.35732 L399.477916,345.527874 C399.418173,346.26537 399.423487,347.006695 399.493797,347.743259 C416.9866,340.22895 433.98445,331.454756 451.699586,324.284533 C469.409429,310.624318 482.556162,292.522746 496.616046,275.199338 C494.382134,271.978164 490.941274,269.942763 485.663524,270.699752 Z" id="Path" fill="#E56E5E" fill-rule="nonzero"></path>
                <path d="M508.047643,278.907527 C509.274235,281.582064 511.059402,283.962888 513.283044,285.889826 C517.319438,276.713317 524.463193,270.374194 531.630769,263.690984 L525.850124,257.100414 L506.478081,269.892473 L495.84847,263.743921 L492.068817,266.451613 C497.007775,273.333333 501.420017,280.643838 507.049793,286.898263 C506.800993,284.142928 507.798842,281.649628 508.047643,278.907527 Z" id="Path" fill="#BAB3C4" fill-rule="nonzero"></path>
                <path d="M513.283044,285.889826 C511.059402,283.962888 509.274235,281.582064 508.047643,278.907527 C507.798842,281.649628 506.800993,284.142928 507.049793,286.885029 C501.420017,280.630604 497.007775,273.32804 492.068817,266.438379 L487.20397,269.892473 L497.51067,345.522581 L519.950372,345.024979 L543.054425,276.708023 L531.630769,263.685691 C524.463193,270.374194 517.319438,276.713317 513.283044,285.889826 Z" id="Path" fill="#DDD6E5" fill-rule="nonzero"></path>
                <path d="M539.711497,383.874938 C538.464847,374.899586 534.973697,366.919438 533.478246,357.936146 C531.034666,344.284654 530.197869,330.394003 530.984946,316.547891 C531.982796,303.08354 534.227295,289.370389 539.719438,276.655087 C540.201679,275.722618 540.785779,274.846468 541.461042,274.04268 L527.168238,258.577337 C527.168238,258.577337 502.844003,319.755831 504.005955,348.346733 C504.8,367.853763 509.696609,393.077916 512.740447,407.153681 L513.558313,406.5555 C523.256245,399.321754 532.480397,393.09909 539.711497,383.874938 Z" id="Path" fill="#933E24" fill-rule="nonzero"></path>
                <path d="M544.883375,320.09727 C547.53019,306.63292 548.374524,281.533168 548.374524,281.533168 L541.453102,274.05062 C540.777839,274.854408 540.193738,275.730558 539.711497,276.663027 C534.227295,289.367742 531.982796,303.091481 530.977006,316.555831 C530.189928,330.401943 531.026725,344.292594 533.470306,357.944086 C534.965757,366.919438 538.456907,374.899586 539.703557,383.882878 C532.472457,393.107031 523.248304,399.340281 513.523904,406.571381 L512.706038,407.169562 C514.114144,413.715136 515.122581,417.841522 515.122581,417.841522 C515.122581,417.841522 541.551034,420.168073 552.355335,409.371712 C550.367577,397.887179 542.223325,333.561621 544.883375,320.09727 Z" id="Path" fill="#7A2511" fill-rule="nonzero"></path>
                <path d="M494.768569,263.415715 C494.768569,263.415715 509.146071,349.032258 509.977171,360.148883 C510.808271,371.265509 504.948222,418.040033 504.948222,418.040033 C504.948222,418.040033 499.350207,418.99024 489.707858,414.003639 C489.707858,414.003639 493.032258,354.331183 490.872457,344.193879 C488.712655,334.056576 484.520099,272.43871 484.520099,272.43871 C484.520099,272.43871 488.702068,266.409264 494.768569,263.415715 Z" id="Path" fill="#AF533E" fill-rule="nonzero"></path>
                <polygon id="Path" fill="#E26A3B" fill-rule="nonzero" points="494.768569 259.924566 488.702068 264.580314 489.69727 293.668817 494.768569 295.645988 490.030769 298.655418 506.745409 337.063358"></polygon>
                <path d="M542.720926,426.475434 C542.720926,426.475434 541.577502,417.666832 550.13201,415.173532 C558.686518,412.680232 571.481224,409.522581 574.482713,421.822333 L570.827461,422.986931 C570.827461,422.986931 567.870968,415.594376 557.214888,418.045327 C546.558809,420.496278 547.88751,425.615219 547.88751,425.615219 L542.720926,426.475434 Z" id="Path" fill="#191D21" fill-rule="nonzero"></path>
                <path d="M517.772043,238.268321 C521.760794,234.528371 524.502895,228.792721 523.007444,223.057072 C523.007444,222.31067 521.760794,222.061869 521.011745,221.561621 C520.514144,221.312821 520.514144,220.563772 520.265343,220.06617 C519.765095,215.566584 522.009595,211.090819 519.765095,206.85062 C514.032093,196.131017 500.318941,201.117618 490.094293,198.624318 C489.584408,198.556971 489.08368,198.432677 488.601489,198.253763 C486.325227,210.868486 481.942101,238.641522 486.53962,243.302564 C487.266175,244.006831 488.083283,244.611206 488.969396,245.099752 C499.109347,247.016046 510.038048,245.18445 517.772043,238.268321 Z" id="Path" fill="#F2CDB3" fill-rule="nonzero"></path>
                <path d="M567.497767,406.110835 C567.116625,402.630273 566.658726,400.046981 566.658726,400.046981 C566.658726,400.046981 561.836228,392.56708 555.354177,399.716129 C555.354177,399.716129 554.583954,402.021505 551.950372,404.517452 C556.637883,406.997519 562.114144,407.169562 567.497767,406.110835 Z" id="Path" fill="#DB7163" fill-rule="nonzero"></path>
                <path d="M551.950372,404.517452 C551.007539,405.402774 549.976013,406.188615 548.872126,406.862531 C543.718776,410.020182 547.548718,422.319934 552.363275,422.478743 C553.194376,423.802151 554.025476,428.796691 566.656079,422.478743 C568.474442,419.037883 568.080066,411.494458 567.49512,406.102895 C562.114144,407.169562 556.637883,406.997519 551.950372,404.517452 Z" id="Path" fill="#F2CDB3" fill-rule="nonzero"></path>
                <path d="M551.098098,413.378991 C551.098098,413.378991 551.098098,413.527213 551.121919,413.783954 C551.14574,414.040695 551.153681,414.405955 551.177502,414.84268 C551.190736,415.059719 551.20397,415.295285 551.217204,415.544086 C551.230438,415.792887 551.251613,416.052275 551.270141,416.32225 C551.288668,416.592225 551.315136,416.867494 551.333664,417.148056 C551.352192,417.428619 551.3866,417.714475 551.415715,417.997684 C551.44483,418.280893 551.479239,418.564103 551.521588,418.842018 C551.563937,419.119934 551.593052,419.395203 551.651282,419.654591 C551.709512,419.913978 551.733333,420.183954 551.796857,420.41158 C551.823325,420.533333 551.849793,420.649793 551.876261,420.760959 C551.89563,420.871723 551.921257,420.9813 551.953019,421.089165 C552.013896,421.292969 552.061538,421.486187 552.106534,421.65823 C552.15153,421.830273 552.20976,421.973201 552.246816,422.094955 C552.323573,422.341108 552.363275,422.486683 552.363275,422.486683 C552.363275,422.486683 552.26799,422.375517 552.114475,422.163772 C552.019273,422.038962 551.930916,421.909077 551.849793,421.77469 C551.759801,421.618528 551.659222,421.438544 551.555997,421.245327 C551.447077,421.029635 551.350747,420.807813 551.267494,420.580976 C551.164992,420.329364 551.076627,420.072223 551.002812,419.810753 C550.95823,419.675669 550.922858,419.537718 550.89694,419.397849 C550.865178,419.254921 550.836063,419.111993 550.804301,418.969065 C550.743424,418.680562 550.714309,418.384119 550.669313,418.087676 C550.624318,417.791232 550.616377,417.492142 550.60579,417.200993 C550.595203,416.909843 550.589909,416.618693 550.60579,416.340778 C550.621671,416.062862 550.634905,415.795533 550.658726,415.546733 C550.682548,415.297932 550.716956,415.054425 550.748718,414.832093 C550.803137,414.475334 550.877362,414.121879 550.97105,413.773366 C551.00637,413.639746 551.048779,413.508101 551.098098,413.378991 L551.098098,413.378991 Z" id="Path" fill="#C96A4C" fill-rule="nonzero"></path>
                <path d="M534.245823,217.466998 C521.943424,217.202316 537.819024,210.143259 534.910174,201.498759 C532.001323,192.85426 496.512821,176.899256 489.781969,192.025806 C489.781969,192.025806 489.287014,194.450289 488.601489,198.253763 C489.08368,198.432677 489.584408,198.556971 490.094293,198.624318 C500.318941,201.117618 514.032093,196.131017 519.765095,206.85062 C522.009595,211.085525 519.765095,215.585112 520.265343,220.06617 C520.514144,220.563772 520.514144,221.312821 521.011745,221.561621 C521.760794,222.061869 523.007444,222.31067 523.007444,223.057072 C524.502895,228.792721 521.760794,234.528371 517.772043,238.268321 C510.048635,245.18445 499.109347,247.002812 488.969396,245.099752 C497.579487,250.022829 518.740778,251.775021 524.852275,234.327213 C524.852275,234.327213 529.174524,236.738462 534.743424,231.585112 C540.312324,226.431762 546.545575,217.729032 534.245823,217.466998 Z" id="Path" fill="#EAA98C" fill-rule="nonzero"></path>
                <path d="M537.967246,198.124069 C532.231596,192.391067 523.505045,194.135318 516.263358,191.890819 C515.016708,191.642018 513.272457,190.895616 513.770058,189.148718 C513.965922,188.952854 514.161787,188.452605 514.479404,188.354673 C507.094789,187.446816 499.707527,189.384285 492.079404,189.148718 C484.501572,188.727874 474.081059,186.528371 471.616873,178.950538 C468.210422,185.877254 471.791563,198.841356 492.179983,194.519107 C501.904384,193.195699 526.503888,192.931017 527.170885,203.412407 C527.501737,212.970058 524.926385,222.112159 524.926385,222.112159 L534.150538,217.877254 C534.150538,217.877254 534.814888,212.890653 540.550538,211.644003 C540.751562,211.599082 540.949579,211.541622 541.143424,211.47196 C542.387428,206.877089 541.553681,201.850786 537.967246,198.124069 Z" id="Path" fill="#A04D57" fill-rule="nonzero"></path>
                <path d="M514.489992,188.370554 L514.778495,188.40761 C514.690914,188.357882 514.587296,188.344573 514.489992,188.370554 L514.489992,188.370554 Z" id="Path" fill="#A04D57" fill-rule="nonzero"></path>
                <path d="M522.610422,250.284864 C522.610422,250.284864 511.472622,265.578164 506.57072,269.077254 C505.654921,276.223656 511.97287,281.543755 511.97287,281.543755 L525.850124,257.111001 L522.610422,250.284864 Z" id="Path" fill="#DDD6E5" fill-rule="nonzero"></path>
                <polygon id="Path" fill="#DDD6E5" fill-rule="nonzero" points="495.84847 255.604963 506.478081 269.897767 502.579322 281.533168 494.768569 264.495616"></polygon>
                <path d="M551.198677,394.729529 L550.13995,400.878081 C550.13995,400.878081 562.844665,403.70488 566.669313,400.046981 C566.335815,394.39603 566.669313,391.577171 566.669313,391.577171 L551.198677,394.729529 Z" id="Path" fill="#DDD6E5" fill-rule="nonzero"></path>
                <path d="M529.447146,261.06799 L526.930025,288.181969 L520.781472,289.505376 L525.850124,294.560794 L505.6311,329.874607 C505.6311,329.874607 506.478081,295.995368 527.096774,257.087179 C530.754673,258.775848 529.447146,261.06799 529.447146,261.06799 Z" id="Path" fill="#E26A3B" fill-rule="nonzero"></path>
                <ellipse id="Oval" fill="#2E333A" fill-rule="nonzero" cx="546.045327" cy="430.199504" rx="6.3153019" ry="4.58693135"></ellipse>
                <ellipse id="Oval" fill="#2E333A" fill-rule="nonzero" cx="573.723077" cy="426.475434" rx="6.3153019" ry="4.58693135"></ellipse>
                <polygon id="Path" fill="#2E333A" fill-rule="nonzero" points="526.437717 432.499586 523.441522 433.791232 529.756824 484.154839 535.241026 486.147891 603.06038 474.845988 604.222333 472.019189 596.909181 421.822333"></polygon>
                <path d="M533.247974,309.292969 L533.547064,310.071133 L549.038875,350.180976 L549.038875,396.391729 C549.038875,396.391729 559.843176,400.891315 567.831266,394.729529 C567.831266,394.729529 567.664516,353.672126 567.831266,347.190074 C567.998015,340.708023 550.214061,283.512986 548.385112,281.533168 C546.556162,279.55335 528.428122,290.177667 533.247974,309.292969 Z" id="Path" fill="#933E24" fill-rule="nonzero"></path>
                <path d="M525.601323,432.626634 L596.909181,421.819686 C596.909181,421.819686 605.884533,447.250289 600.233581,451.572539 C594.58263,455.894789 547.874276,462.710339 537.734326,461.879239 C527.594376,461.048139 525.601323,432.626634 525.601323,432.626634 Z" id="Path" fill="#6D6F72" fill-rule="nonzero"></path>
                <polygon id="Path" fill="#191D21" fill-rule="nonzero" points="523.441522 433.791232 528.158147 432.240199 535.241026 486.147891 529.756824 484.154839"></polygon>
                <polygon id="Path" fill="#DD8F7A" fill-rule="nonzero" points="498.175021 211.05641 489.28172 224.602812 497.722415 229.00976"></polygon>
                <path d="M492.402316,232.620017 C496.6922,234.777347 501.73334,234.853403 506.086352,232.826468 C506.362565,232.664334 506.455987,232.309568 506.295451,232.032423 C506.129673,231.76106 505.779333,231.668804 505.501406,231.823325 C501.515871,233.653292 496.915532,233.577366 492.992556,231.616873 C492.325558,231.278081 491.735318,232.281224 492.404963,232.620017 L492.402316,232.620017 Z" id="Path" fill="#000000" fill-rule="nonzero"></path>
                <path d="M488.990571,208.110505 C489.72238,207.452156 490.702878,207.14197 491.680183,207.259632 C492.657487,207.377294 493.536345,207.911336 494.090984,208.724566 C494.503888,209.343921 495.512324,208.761621 495.096774,208.136973 C494.366407,207.003115 493.169895,206.252501 491.831191,206.088359 C490.492487,205.924217 489.150076,206.363526 488.167411,207.287345 C487.614227,207.792887 488.432093,208.610753 488.990571,208.110505 L488.990571,208.110505 Z" id="Path" fill="#000000" fill-rule="nonzero"></path>
                <path d="M508.637883,210.741439 C510.390074,210.431762 512.27196,210.087676 514.008271,210.643507 C515.273449,211.045823 516.430108,211.966915 516.739785,213.290323 C516.909181,214.020844 518.031431,213.711166 517.862035,212.980645 C517.4756,211.310505 516.064847,210.124731 514.500579,209.5689 C512.518114,208.8622 510.339785,209.251282 508.328205,209.605955 C508.176078,209.647807 508.047174,209.749081 507.970507,209.886982 C507.893841,210.024882 507.875854,210.187821 507.920596,210.339123 C508.011571,210.643989 508.326953,210.822705 508.635236,210.744086 L508.637883,210.741439 Z" id="Path" fill="#000000" fill-rule="nonzero"></path>
                <path d="M506.763937,216.312986 C507.536807,216.008602 508.243507,215.582465 508.989909,215.225145 C509.646319,214.915467 510.358313,214.695782 511.0756,214.923408 C511.813841,215.197215 512.477475,215.640544 513.013069,216.217701 C513.558532,216.731007 513.923412,217.406916 514.053267,218.144582 C514.140759,218.452372 514.458445,218.633571 514.767907,218.552192 C515.073299,218.460028 515.252638,218.144438 515.175517,217.834905 C515.005464,216.934838 514.562872,216.10879 513.907692,215.468652 C513.258341,214.78075 512.469675,214.239332 511.594376,213.880562 C509.691315,213.144748 508.127047,214.53962 506.45426,215.20397 C506.151203,215.297207 505.973547,215.610717 506.049297,215.91861 C506.136789,216.2264 506.454475,216.407599 506.763937,216.32622 L506.763937,216.312986 Z" id="Path" fill="#000000" fill-rule="nonzero"></path>
                <path d="M507.422994,216.389744 C507.710696,216.892212 508.286799,217.155238 508.854921,217.043507 C509.395384,216.923721 509.772978,216.434743 509.752192,215.881555 C509.753774,215.277217 509.271198,214.782871 508.666998,214.769892 C507.989413,214.769892 507.512986,215.299256 507.317122,215.905376 C507.245746,216.144506 507.192657,216.388717 507.158313,216.635897 C507.105515,216.929297 507.081579,217.227162 507.086849,217.525227 C507.115964,218.165757 507.367411,219.039206 508.145575,219.041853 C508.767577,219.041853 509.217535,218.478081 509.468983,217.969892 C509.732057,217.467457 509.85373,216.903004 509.821009,216.336807 C509.811565,215.91629 509.54917,215.543084 509.156658,215.391894 C508.855349,215.293351 508.526681,215.324014 508.248801,215.476592 C507.624152,215.78627 507.52622,216.535318 507.573863,217.152026 C507.578561,217.358584 507.690922,217.547648 507.87011,217.650505 C508.049298,217.753362 508.269225,217.755037 508.449959,217.654921 C508.920587,217.401195 509.231952,216.927681 509.278412,216.395037 C509.278804,216.240666 509.216753,216.092697 509.106369,215.984781 C508.994693,215.88006 508.849079,215.818996 508.696112,215.812738 C508.159302,215.796168 507.685309,216.160522 507.563275,216.68354 C507.509924,216.955517 507.55694,217.237613 507.695616,217.477585 C507.836382,217.708611 508.052228,217.884279 508.307031,217.975186 C508.617546,218.059772 508.938064,217.877633 509.024318,217.567577 C509.098614,217.258437 508.920316,216.944679 508.616708,216.850289 C508.693466,216.884698 508.7067,216.887345 508.651117,216.850289 C508.709347,216.897932 508.725227,216.908519 508.693466,216.876758 C508.661704,216.844996 508.672291,216.860877 508.719934,216.919107 L508.690819,216.868817 C508.669644,216.829115 508.690819,216.844996 508.709347,216.91646 C508.700685,216.891539 508.69448,216.865831 508.690819,216.839702 L508.704053,216.91646 C508.704053,216.850289 508.704053,216.863524 508.704053,216.953515 C508.722581,216.844996 508.645823,217.024979 508.704053,216.937634 C508.611414,217.062035 508.704053,216.937634 508.722581,216.937634 C508.659057,216.985277 508.653763,216.990571 508.709347,216.958809 L508.645823,216.985277 C508.711993,216.969396 508.698759,216.966749 508.614061,216.985277 L508.698759,216.985277 L508.11646,216.402978 C508.11646,216.360629 508.134988,216.310339 508.11646,216.379156 C508.11646,216.379156 508.071464,216.516791 508.100579,216.434739 C508.129694,216.352688 508.100579,216.45062 508.084698,216.463854 C508.068817,216.477089 508.037055,216.556493 508.023821,216.556493 C508.010587,216.556493 508.097932,216.479735 508.023821,216.556493 C508.023821,216.556493 507.965591,216.620017 507.960298,216.61737 C507.955004,216.614723 508.05823,216.553846 507.960298,216.61737 C507.929691,216.637018 507.897865,216.654699 507.865012,216.670306 L508.741108,217.173201 C508.730545,217.011918 508.730545,216.850117 508.741108,216.688834 C508.741108,216.813234 508.741108,216.715302 508.741108,216.6756 C508.741108,216.635897 508.762283,216.601489 508.77287,216.561787 C508.807279,216.434739 508.730521,216.606782 508.77287,216.561787 C508.783649,216.540578 508.796037,216.520226 508.809926,216.50091 C508.754342,216.569727 508.746402,216.580314 508.788751,216.535318 C508.8311,216.490323 508.77287,216.575021 508.756989,216.55914 L508.786104,216.537965 C508.841687,216.50885 508.828453,216.514144 508.746402,216.537965 C508.746402,216.537965 508.820513,216.514144 508.817866,216.516791 C508.929032,216.471795 508.711993,216.516791 508.786104,216.516791 C508.860215,216.516791 508.801985,216.548553 508.751696,216.516791 C508.76493,216.516791 508.88139,216.540612 508.778164,216.516791 L508.738462,216.50091 C508.791398,216.535318 508.778164,216.524731 508.701406,216.471795 C508.624648,216.418859 508.640529,216.38445 508.666998,216.429446 C508.693466,216.474442 508.685525,216.455914 508.666998,216.400331 C508.7067,216.543259 508.666998,216.291811 508.666998,216.44268 C508.666998,216.474442 508.666998,216.50885 508.666998,216.540612 C508.666998,216.62531 508.666998,216.710008 508.666998,216.805294 C508.653763,216.964103 508.685525,216.731183 508.666998,216.826468 C508.666998,216.86617 508.653763,216.908519 508.643176,216.950868 C508.622334,217.049636 508.594923,217.146902 508.561125,217.242018 C508.561125,217.27378 508.53995,217.305542 508.526716,217.337304 C508.47378,217.485525 508.563772,217.276427 508.526716,217.361125 C508.489661,217.445823 508.460546,217.496112 508.42349,217.562283 C508.386435,217.628453 508.333499,217.705211 508.288503,217.774028 C508.203805,217.906369 508.35732,217.713151 508.259388,217.811084 L508.164103,217.909016 C508.071464,218.004301 508.227626,217.882548 508.164103,217.909016 C508.100579,217.935484 508.039702,217.964599 508.164103,217.909016 C508.068817,217.943424 508.164103,217.909016 508.198511,217.909016 C508.089992,217.909016 508.272622,217.924897 508.301737,217.938131 C508.330852,217.951365 508.397022,217.999007 508.386435,218.014888 C508.375848,218.030769 508.317618,217.834905 508.365261,217.98048 C508.336146,217.887841 508.317618,217.789909 508.288503,217.694624 C508.259388,217.599338 508.288503,217.829611 508.288503,217.665509 L508.288503,217.556989 C508.288503,217.466998 508.288503,217.377006 508.288503,217.292308 C508.288503,217.20761 508.301737,217.109677 508.312324,217.027626 C508.29909,217.154673 508.312324,216.977337 508.312324,216.964103 C508.312324,216.908519 508.330852,216.855583 508.341439,216.802647 C508.368192,216.635737 508.404424,216.470484 508.449959,216.307692 L508.48172,216.212407 C508.529363,216.069479 508.420844,216.299752 508.500248,216.170058 C508.518559,216.142773 508.535347,216.114497 508.550538,216.08536 C508.611414,215.974194 508.489661,216.125062 508.571712,216.053598 C508.59818,216.032423 508.7067,215.958313 508.592887,216.02713 L508.669644,215.982134 C508.801985,215.905376 508.561125,216.037717 508.696112,215.982134 C508.722581,215.9689 508.817866,215.963606 508.672291,215.982134 C508.799338,215.963606 508.595533,215.953019 508.672291,215.982134 C508.749049,216.011249 508.558478,215.91067 508.65641,215.982134 C508.754342,216.053598 508.569065,215.908023 508.627295,215.958313 C508.727874,216.043011 508.566419,215.865674 508.627295,215.958313 C508.688172,216.050951 508.600827,215.958313 508.608768,215.908023 C508.608768,215.908023 508.643176,216.080066 508.629942,215.958313 C508.616708,215.836559 508.629942,215.958313 508.629942,215.979487 C508.629942,216.08536 508.666998,215.857734 508.629942,215.958313 C508.616634,215.98886 508.606865,216.02083 508.600827,216.053598 L508.632589,215.974194 C508.622085,215.993302 508.6106,216.011854 508.59818,216.029777 C508.59818,215.992721 508.677585,215.931844 508.627295,215.987428 C508.577006,216.043011 508.595533,216.019189 508.661704,215.960959 L508.59818,215.998015 C508.59818,215.998015 508.730521,215.929198 508.632589,215.97684 C508.534657,216.024483 508.743755,215.97684 508.632589,215.97684 C508.521423,215.97684 508.632589,215.97684 508.632589,215.97684 L508.524069,215.947725 C508.412903,215.91861 508.582299,216.000662 508.542597,215.947725 C508.524966,215.939604 508.50813,215.929857 508.492308,215.91861 C508.442018,215.884202 508.449959,215.892142 508.518776,215.942432 C508.499797,215.92713 508.482093,215.910312 508.46584,215.892142 C508.42349,215.8445 508.431431,215.855087 508.487014,215.921257 C508.471303,215.900785 508.457983,215.878584 508.447312,215.855087 C508.283322,215.581333 507.930816,215.488507 507.653267,215.645988 C507.384227,215.813488 507.292518,216.161752 507.444169,216.440033 L507.422994,216.389744 Z" id="Path" fill="#000000" fill-rule="nonzero"></path>
                <path d="M489.324069,211.927213 C490.036231,211.024472 491.255308,210.694192 492.325776,211.113971 C493.396243,211.53375 494.065846,212.604668 493.974524,213.750868 C493.934822,214.499917 495.099421,214.49727 495.139123,213.750868 C495.229154,212.133875 494.276158,210.640123 492.77183,210.040311 C491.267503,209.4405 489.548167,209.868728 488.50091,211.104053 C488.28076,211.334281 488.28076,211.696985 488.50091,211.927213 C488.729456,212.151516 489.095523,212.151516 489.324069,211.927213 L489.324069,211.927213 Z" id="Path" fill="#000000" fill-rule="nonzero"></path>
                <path d="M489.175848,211.855749 L488.728536,212.840364 C488.551199,213.226799 488.312986,213.618528 488.44268,214.057899 C488.590535,214.487104 488.989369,214.779371 489.443176,214.791067 C489.861518,214.780449 490.257748,214.600952 490.541605,214.293466 C491.03109,213.800365 491.308447,213.135467 491.314475,212.440695 C491.345193,212.04952 491.219552,211.662126 490.965095,211.363441 C490.681602,211.086496 490.270174,210.985159 489.890488,211.098759 C489.479147,211.221401 489.150228,211.531665 489.003805,211.935153 C488.883642,212.301892 488.851009,212.69167 488.908519,213.073284 C488.911836,213.25356 488.997371,213.422432 489.140745,213.531768 C489.284119,213.641104 489.469605,213.678909 489.644334,213.634409 C490.056823,213.534709 490.34832,213.16679 490.351034,212.742432 C490.34816,212.422035 490.089132,212.163006 489.768734,212.160132 C489.450086,212.167138 489.193441,212.423784 489.186435,212.742432 C489.186435,212.71861 489.220844,212.612738 489.186435,212.686849 L489.218197,212.610091 C489.191729,212.649793 489.194376,212.647146 489.218197,212.610091 C489.231364,212.585966 489.251716,212.56654 489.276427,212.554508 C489.313482,212.52804 489.318776,212.522746 489.292308,212.538627 C489.239371,212.570389 489.432589,212.496278 489.321423,212.517452 L490.059884,213.078577 C490.059884,212.964764 490.03871,212.850951 490.036063,212.737138 C490.032098,212.677209 490.032098,212.617084 490.036063,212.557155 C490.036063,212.530687 490.036063,212.504218 490.036063,212.47775 C490.036063,212.358644 490.004301,212.596857 490.036063,212.47775 C490.036063,212.427461 490.059884,212.377171 490.075765,212.326882 C490.091646,212.276592 490.107527,212.326882 490.075765,212.355997 C490.089796,212.334002 490.102181,212.311 490.112821,212.287179 C490.124932,212.271429 490.135565,212.254595 490.144582,212.23689 C490.10488,212.340116 490.070471,212.318941 490.112821,212.284533 C490.132605,212.268256 490.151181,212.250564 490.168404,212.231596 C490.210753,212.183954 490.054591,212.30306 490.136642,212.258065 C490.15519,212.24906 490.172904,212.238431 490.189578,212.226303 C490.282217,212.17072 490.081059,212.260711 490.149876,212.242184 C490.173697,212.242184 490.319272,212.207775 490.202812,212.221009 C490.086352,212.234243 490.202812,212.221009 490.202812,212.221009 C490.202812,212.221009 490.268983,212.258065 490.133995,212.207775 L490.186931,212.221009 C490.282217,212.239537 490.062531,212.154839 490.152523,212.207775 C490.189578,212.22895 490.210753,212.268652 490.102233,212.168073 C490.160463,212.221009 490.065178,212.144251 490.078412,212.128371 C490.091646,212.11249 490.120761,212.194541 490.115467,212.189247 C490.065178,212.146898 490.081059,212.086022 490.099586,212.152192 C490.104955,212.20171 490.115603,212.250512 490.131348,212.297767 L490.131348,212.215715 C490.132535,212.235107 490.132535,212.254554 490.131348,212.273945 C490.131348,212.305707 490.131348,212.337469 490.131348,212.366584 C490.131348,212.395699 490.131348,212.480397 490.131348,212.538627 C490.131348,212.596857 490.131348,212.588916 490.131348,212.612738 C490.131348,212.636559 490.131348,212.71067 490.131348,212.628619 L490.131348,212.588916 C490.12845,212.613867 490.124031,212.638616 490.118114,212.663027 L490.102233,212.737138 C490.088624,212.799113 490.07094,212.860122 490.049297,212.919768 L490.025476,212.991232 C490.009595,213.030935 489.975186,213.062696 490.041356,212.956824 C490.014888,212.999173 489.996361,213.049462 489.972539,213.094458 C489.948718,213.139454 489.919603,213.19239 489.887841,213.240033 L489.845492,213.303557 C489.776675,213.401489 489.861373,213.303557 489.845492,213.303557 C489.861373,213.340612 489.636394,213.525889 489.607279,213.552357 C489.578164,213.578825 489.62316,213.552357 489.6311,213.536476 C489.610931,213.553345 489.588695,213.567576 489.56493,213.578825 C489.542921,213.593611 489.519929,213.606876 489.496112,213.618528 C489.44847,213.642349 489.44847,213.642349 489.496112,213.618528 C489.543755,213.594706 489.541108,213.597353 489.496112,213.618528 C489.470051,213.622533 489.444374,213.62873 489.419355,213.637055 C489.440529,213.618528 489.554342,213.637055 489.45641,213.637055 C489.358478,213.637055 489.51464,213.637055 489.51464,213.637055 C489.494069,213.629587 489.472782,213.624266 489.451117,213.621175 C489.501406,213.6 489.56493,213.682051 489.501406,213.639702 C489.485525,213.639702 489.39024,213.578825 489.477585,213.639702 C489.56493,213.700579 489.498759,213.639702 489.477585,213.639702 C489.45641,213.639702 489.554342,213.750868 489.5067,213.66617 C489.615219,213.864682 489.5067,213.637055 489.541108,213.764103 C489.541108,213.822333 489.541108,213.824979 489.541108,213.764103 L489.541108,213.838213 C489.541108,213.838213 489.541108,213.769396 489.567577,213.758809 C489.535815,213.83292 489.530521,213.84086 489.567577,213.78263 L489.588751,213.737634 C489.652275,213.594706 489.718445,213.451778 489.781969,213.311497 L490.186931,212.456576 C490.261069,212.318871 490.281802,212.158658 490.245161,212.006617 C490.180769,211.784092 489.990599,211.620901 489.760877,211.591037 C489.531156,211.561173 489.305582,211.670318 489.186435,211.868983 L489.175848,211.855749 Z" id="Path" fill="#000000" fill-rule="nonzero"></path>
                <path d="M536.474442,220.719934 C532.684202,220.238213 529.32804,222.948553 527.877585,226.262366 C527.44783,227.234742 527.131653,228.253438 526.935318,229.298263 C526.859802,229.606929 527.038808,229.92077 527.342928,230.012903 C527.651795,230.096002 527.970136,229.915609 528.057568,229.60794 C528.454591,227.516956 529.298925,225.468321 530.820844,223.943755 C532.300414,222.464185 534.375517,221.617204 536.474442,221.884533 C536.795435,221.883083 537.055292,221.623226 537.056741,221.302233 C537.048403,220.984156 536.792519,220.728272 536.474442,220.719934 L536.474442,220.719934 Z" id="Path" fill="#D16654" fill-rule="nonzero"></path>
                <path d="M531.291977,224.33019 C532.260711,223.784946 533.409429,223.340281 534.536973,223.488503 C535.048921,223.527726 535.529791,223.749378 535.892142,224.113151 C536.169551,224.465396 536.194998,224.954187 535.955666,225.333333 C535.566584,225.97651 536.572374,226.564103 536.958809,225.920926 C537.362632,225.246067 537.385701,224.409573 537.019686,223.713482 C536.659719,223.035897 535.91861,222.625641 535.201323,222.437717 C533.655583,222.038048 532.048966,222.567411 530.701737,223.3244 C530.05062,223.692308 530.635567,224.698098 531.28933,224.33019 L531.291977,224.33019 Z" id="Path" fill="#D16654" fill-rule="nonzero"></path>
                <path d="M546.942597,189.731017 C544.26402,183.365426 540.044996,177.513317 510.125393,173.850124 C497.058065,172.262035 488.580314,169.112324 488.580314,169.112324 C486.589909,172.219686 488.434739,175.496443 491.245658,178.254425 C487.579818,178.937304 482.775848,179.342266 478.19421,178.254425 C479.252936,180.414227 481.425972,182.108189 484.070141,183.42895 C479.020017,182.513151 474.192225,181.012407 471.828619,178.553515 C471.759801,178.680562 471.693631,178.818197 471.627461,178.942597 C474.088999,186.52043 484.512159,188.719934 492.089992,189.140778 C499.718114,189.386931 507.105376,187.449462 514.489992,188.346733 C514.587296,188.320752 514.690914,188.334061 514.778495,188.383788 L514.489992,188.346733 C514.172374,188.434078 513.97651,188.934326 513.780645,189.140778 C513.283044,190.887676 515.027295,191.634078 516.273945,191.882878 C523.505045,194.127378 532.231596,192.383127 537.977833,198.116129 C541.564268,201.842845 542.398015,206.869148 541.154012,211.458726 C546.945244,209.388916 550.748718,198.777833 546.942597,189.731017 Z" id="Path" fill="#C66D7C" fill-rule="nonzero"></path>
            </g>
        </g>
    </g>
</svg>