<?xml version="1.0" encoding="UTF-8"?>
<svg width="1920px" height="1130px" viewBox="0 0 1920 1130" version="1.1" xmlns="http://www.w3.org/2000/svg" xmlns:xlink="http://www.w3.org/1999/xlink">
    <!-- Generator: Sketch 63.1 (92452) - https://sketch.com -->
    <title>header_background</title>
    <desc>Created with Sketch.</desc>
    <defs>
        <linearGradient x1="50%" y1="-65.7587394%" x2="50%" y2="100%" id="linearGradient-1">
            <stop stop-color="#CB5942" offset="0%"></stop>
            <stop stop-color="#9C2D1F" offset="100%"></stop>
        </linearGradient>
        <path d="M0,1087.79653 C86.29616,1135.54239 149.148615,1142.77617 188.557364,1109.49788 C292.621393,1021.62214 385.012389,980.263805 460.611587,981.128602 C638.426085,983.162665 803.683287,1010.43642 872.029165,981.128602 C940.375044,951.820785 979.159383,878.8726 1050.57535,894.860042 C1121.99132,910.847483 1311.85197,1001.1282 1424.46201,999.123423 C1537.07205,997.118645 1840,854.227708 1920,857.938655 L1920,0 L0,0 L0,1087.79653 Z" id="path-2"></path>
    </defs>
    <g id="Dashboard" stroke="none" stroke-width="1" fill="none" fill-rule="evenodd">
        <g id="0.-HostShield---Home-Page">
            <g id="header_background">
                <mask id="mask-3" fill="white">
                    <use xlink:href="#path-2"></use>
                </mask>
                <use id="Mask" fill="url(#linearGradient-1)" xlink:href="#path-2"></use>
                <g id="symbol" opacity="0.25" mask="url(#mask-3)" fill="#9C2D1F" fill-rule="nonzero">
                    <g transform="translate(859.000000, -242.000000)" id="Combined-Shape">
                        <path d="M549.206295,366.814178 C563.537297,352.584695 586.664958,352.584695 600.99596,366.814178 L600.99596,366.814178 L1029.9999,797.293806 C891.144569,1100.79389 578.438996,1277.59551 574.92545,1279.5631 L574.92545,1279.5631 L574.580549,1279.36203 C560.250424,1271.03236 255.576464,1095.10968 119.640189,796.731639 L119.640189,796.731639 Z M574.784908,565.188906 L572.847101,565.208681 C508.979841,566.281952 453.171747,608.929804 435.458743,670.458338 C417.56682,732.608371 442.836655,799.109488 497.486901,833.69414 L497.486901,833.69414 L427.215986,1045.13932 L722.775456,1045.13932 L652.504541,833.69414 C707.327254,799.127479 732.667985,732.460685 714.648125,670.205817 C696.628265,607.950949 639.595248,565.127484 574.784908,565.188906 L574.784908,565.188906 Z M574.92545,3.41060513e-13 C828.533184,3.41060513e-13 1148.89829,238.077861 1148.89829,238.077861 C1148.89829,238.077861 1164.77951,429.14448 1076.65979,680.714357 L601.136502,206.596491 C594.29124,199.713335 584.984299,195.843217 575.276805,195.843217 C565.56931,195.843217 556.26237,199.713335 549.417108,206.596491 L73.3316562,680.995441 C-14.6475299,429.355293 1.09315517,238.288674 1.09315517,238.288674 C1.09315517,238.288674 315.082993,4.81081714 567.301752,0.0730762006 L574.92545,3.41060513e-13 Z"></path>
                    </g>
                </g>
            </g>
        </g>
    </g>
</svg>