<?xml version="1.0" encoding="UTF-8"?>
<svg width="680px" height="675px" viewBox="0 0 680 675" version="1.1" xmlns="http://www.w3.org/2000/svg" xmlns:xlink="http://www.w3.org/1999/xlink">
    <!-- Generator: Sketch 63.1 (92452) - https://sketch.com -->
    <title>Combined Shape</title>
    <desc>Created with Sketch.</desc>
    <defs>
        <linearGradient x1="50%" y1="-65.7587394%" x2="50%" y2="100%" id="linearGradient-1">
            <stop stop-color="#CB5942" offset="0%"></stop>
            <stop stop-color="#9C2D1F" offset="100%"></stop>
        </linearGradient>
        <rect id="path-2" x="0" y="0" width="680" height="675" rx="17.5390765"></rect>
    </defs>
    <g id="Dashboard" stroke="none" stroke-width="1" fill="none" fill-rule="evenodd">
        <g id="0.-HostShield---Home-Page" transform="translate(-1040.000000, -5317.000000)">
            <g id="Group-17" transform="translate(200.000000, 5317.000000)">
                <g id="Group-15" transform="translate(840.000000, 0.000000)">
                    <g id="Combined-Shape">
                        <mask id="mask-3" fill="white">
                            <use xlink:href="#path-2"></use>
                        </mask>
                        <use id="Mask" fill="url(#linearGradient-1)" xlink:href="#path-2"></use>
                        <path d="M140.084199,179.337141 C149.480245,170.440677 164.643772,170.440677 174.039818,179.337141 L174.039818,179.337141 L455.313978,448.478774 C364.274217,638.231095 159.250464,748.769839 156.946827,750 L156.946827,750 L156.720694,749.874289 C147.325223,744.66647 -52.4326446,634.677248 -141.558543,448.1273 L-141.558543,448.1273 Z M156.854681,303.36368 L155.584168,303.376043 C113.709937,304.047067 77.1196556,330.711076 65.5062186,369.179539 C53.7754742,408.036574 70.3435077,449.613963 106.174652,471.236751 L106.174652,471.236751 L60.1018987,603.435115 L253.8839,603.435115 L207.811147,471.236751 C243.755368,449.625211 260.369884,407.944238 248.555258,369.02166 C236.740633,330.099082 199.347237,303.325278 156.854681,303.36368 L156.854681,303.36368 Z M156.946827,-50 C323.223394,-50 533.269077,98.84947 533.269077,98.84947 C533.269077,98.84947 543.68152,218.306881 485.906287,375.59174 L174.131964,79.1668955 C169.643904,74.8634542 163.541858,72.4438044 157.17719,72.4438044 C150.812523,72.4438044 144.710477,74.8634542 140.222417,79.1668955 L-171.920488,375.767478 C-229.603575,218.438684 -219.283279,98.981273 -219.283279,98.981273 C-219.283279,98.981273 -13.4175044,-46.9922126 151.948389,-49.9543118 L156.946827,-50 Z" fill="#9C2D1F" fill-rule="nonzero" opacity="0.1" mask="url(#mask-3)"></path>
                    </g>
                </g>
            </g>
        </g>
    </g>
</svg>