<?xml version="1.0" encoding="UTF-8"?>
<svg width="1920px" height="1410px" viewBox="0 0 1920 1410" version="1.1" xmlns="http://www.w3.org/2000/svg" xmlns:xlink="http://www.w3.org/1999/xlink">
    <!-- Generator: Sketch 63.1 (92452) - https://sketch.com -->
    <title>pricing_bg</title>
    <desc>Created with Sketch.</desc>
    <defs>
        <linearGradient x1="50%" y1="-65.7587394%" x2="50%" y2="100%" id="linearGradient-1">
            <stop stop-color="#CB5942" offset="0%"></stop>
            <stop stop-color="#9C2D1F" offset="100%"></stop>
        </linearGradient>
        <path d="M200,0 L1920,0 L1920,0 L1920,1210 C1920,1320.45695 1830.45695,1410 1720,1410 L0,1410 L0,1410 L0,200 C-1.3527075e-14,89.54305 89.54305,2.02906125e-14 200,0 Z" id="path-2"></path>
    </defs>
    <g id="Dashboard" stroke="none" stroke-width="1" fill="none" fill-rule="evenodd">
        <g id="0.-HostShield---Home-Page" transform="translate(0.000000, -3732.000000)">
            <g id="pricing_bg" transform="translate(0.000000, 3732.000000)">
                <mask id="mask-3" fill="white">
                    <use xlink:href="#path-2"></use>
                </mask>
                <use id="Mask" fill="url(#linearGradient-1)" xlink:href="#path-2"></use>
                <path d="M1576.16178,404.206711 C1592.73571,388.526693 1619.48305,388.526693 1636.05697,404.206711 L1636.05697,404.206711 L2132.2037,878.56884 C1971.61633,1213.0073 1609.96965,1407.83184 1605.90621,1410 L1605.90621,1410 L1605.50732,1409.77843 C1588.93441,1400.59965 1236.57637,1206.74365 1079.3649,877.949366 L1079.3649,877.949366 Z M1605.74367,622.803486 L1603.50258,622.825276 C1529.63954,624.007955 1465.09701,671.003271 1444.61176,738.803938 C1423.9196,807.289461 1453.14438,880.56961 1516.34786,918.679774 L1516.34786,918.679774 L1435.07895,1151.67939 L1776.896,1151.67939 L1695.62709,918.679774 C1759.03003,880.589435 1788.3368,807.126719 1767.49668,738.525676 C1746.65655,669.924632 1680.69738,622.735803 1605.74367,622.803486 L1605.74367,622.803486 Z M1605.90621,1.13686838e-13 C1899.20572,1.13686838e-13 2269.71071,262.347191 2269.71071,262.347191 C2269.71071,262.347191 2288.07748,472.890878 2186.16626,750.105442 L1636.21951,227.656653 C1628.30291,220.071838 1617.53935,215.807205 1606.31255,215.807205 C1595.08575,215.807205 1584.32219,220.071838 1576.40559,227.656653 L1025.80869,750.415179 C924.060006,473.123181 942.264243,262.579494 942.264243,262.579494 C942.264243,262.579494 1305.39618,5.30122522 1597.08933,0.0805254879 L1605.90621,1.13686838e-13 Z" id="Combined-Shape" fill="#9C2D1F" fill-rule="nonzero" opacity="0.1" mask="url(#mask-3)"></path>
            </g>
        </g>
    </g>
</svg>