<?xml version="1.0" encoding="UTF-8"?>
<svg width="87px" height="33px" viewBox="0 0 87 33" version="1.1" xmlns="http://www.w3.org/2000/svg" xmlns:xlink="http://www.w3.org/1999/xlink">
    <!-- Generator: Sketch 63.1 (92452) - https://sketch.com -->
    <title>american_express</title>
    <desc>Created with Sketch.</desc>
    <g id="Dashboard" stroke="none" stroke-width="1" fill="none" fill-rule="evenodd">
        <g id="2.1.-HostShield---Sign-Up-(Payment)" transform="translate(-122.000000, -768.000000)" fill-rule="nonzero">
            <g id="Group-2" transform="translate(100.000000, 699.000000)">
                <g id="methods">
                    <g id="cards" transform="translate(0.000000, 50.000000)">
                        <g id="american_express">
                            <g transform="translate(22.000000, 18.000000)" id="Group">
                                <g transform="translate(0.026142, 0.770481)">
                                    <path d="M22.3080976,15.112633 L22.3080976,13.9835283 L21.7852515,15.112633 L17.2539192,15.112633 L16.7310732,13.8966741 L16.7310732,15.0257788 L8.27839558,15.0257788 L7.31984451,12.6807151 L5.6641654,12.6807151 L4.61847332,15.0257788 L0.261423018,15.0257788 L0.261423018,7.90373338 L3.48564024,0.694833703 L9.67265168,0.694833703 L10.5440617,2.77933481 L10.5440617,0.781687916 L18.0381883,0.781687916 L19.6938674,4.25585643 L21.3495465,0.781687916 L45.1390412,0.781687916 C45.1390412,0.781687916 46.3590152,0.781687916 47.2304253,1.30281319 L47.2304253,0.781687916 L53.2431547,0.781687916 L53.2431547,1.56337583 C53.2431547,1.56337583 54.2888468,0.781687916 55.9445259,0.781687916 C57.513064,0.781687916 66.4885877,0.781687916 66.4885877,0.781687916 L67.4471387,2.86618903 L67.4471387,0.781687916 L74.2441372,0.781687916 L75.4641113,2.86618903 L75.4641113,0.781687916 L81.9125457,0.781687916 L81.9125457,15.1994873 L74.9412653,15.1994873 L73.3727271,12.6807151 L73.3727271,15.1994873 L65.0943316,15.1994873 L63.9614985,12.5938609 L62.3058194,12.5938609 L61.1729863,15.1994873 L56.2059489,15.1994873 C56.2059489,15.1994873 54.3759878,15.1994873 52.9817317,14.1572367 C52.9817317,14.678362 52.9817317,15.1994873 52.9817317,15.1994873 L43.047657,15.1994873 C43.047657,15.1994873 43.047657,12.3332982 43.047657,11.812173 C43.047657,11.2910477 42.699093,11.3779019 42.699093,11.3779019 L42.350529,11.3779019 L42.350529,15.1994873 L22.3080976,15.1994873 L22.3080976,15.112633 Z" id="Shape" fill="#FFFFFF"></path>
                                    <path d="M17.3410602,18.2393847 L30.4122111,18.2393847 L32.3293133,20.41074 L34.2464154,18.2393847 L44.2676311,18.2393847 C44.2676311,18.2393847 45.2261822,18.2393847 46.0975922,18.76051 L46.0975922,18.2393847 C46.0975922,18.2393847 53.9402828,18.2393847 55.0731159,18.2393847 C56.2059489,18.2393847 57.1645,18.8473642 57.1645,18.8473642 L57.1645,18.2393847 L68.6671128,18.2393847 L68.6671128,18.76051 C68.6671128,18.76051 69.4513819,18.2393847 70.5842149,18.2393847 C71.717048,18.2393847 78.0783415,18.2393847 78.0783415,18.2393847 L78.0783415,18.76051 C78.0783415,18.76051 79.0368925,18.2393847 79.9954436,18.2393847 C80.9539947,18.2393847 85.921032,18.2393847 85.921032,18.2393847 L85.921032,31.7886419 C85.921032,31.7886419 85.136763,32.6571841 83.5682249,32.6571841 L75.8126753,32.6571841 L75.8126753,32.222913 C75.8126753,32.222913 75.1155473,32.6571841 73.9827142,32.6571841 C72.8498811,32.6571841 53.3302957,32.6571841 53.3302957,32.6571841 C53.3302957,32.6571841 53.3302957,29.5304324 53.3302957,29.1830155 C53.3302957,28.8355987 53.1560137,28.7487445 52.8945907,28.7487445 L52.6331677,28.7487445 L52.6331677,32.6571841 L46.1847332,32.6571841 L46.1847332,28.7487445 C46.1847332,28.7487445 45.4876052,29.0961613 44.2676311,29.0961613 C43.047657,29.0961613 41.9148239,29.0961613 41.9148239,29.0961613 L41.9148239,32.5703298 L33.9849924,32.5703298 L32.1550313,30.3989745 L30.2379291,32.5703298 L17.3410602,32.5703298 L17.3410602,18.2393847 Z" id="Shape" fill="#FFFFFF"></path>
                                    <polygon id="Shape" fill="#2287C8" points="58.6458971 20.3238858 66.8371517 20.3238858 66.8371517 22.5820954 61.0858453 22.5820954 61.0858453 24.492888 66.6628697 24.492888 66.6628697 26.4036807 61.0858453 26.4036807 61.0858453 28.4013276 66.8371517 28.4013276 66.8371517 30.5726829 58.6458971 30.5726829"></polygon>
                                    <path d="M82.6968148,24.3191796 C85.74675,24.492888 86.008173,26.0562639 86.008173,27.6196397 C86.008173,29.5304324 84.4396349,30.5726829 82.7839558,30.5726829 L77.5554954,30.5726829 L77.5554954,28.4013276 L81.6511227,28.4013276 C82.3482508,28.4013276 83.3939428,28.4013276 83.3939428,27.4459313 C83.3939428,27.0116602 83.2196608,26.6642434 82.4353918,26.5773892 C82.0868278,26.4905349 80.8668537,26.4905349 80.6925717,26.4905349 C77.9040595,26.4036807 77.2940724,25.0140133 77.2940724,23.3637833 C77.2940724,21.4529906 78.6011875,20.41074 80.2568666,20.41074 L85.572468,20.41074 L85.572468,22.5820954 L81.7382637,22.5820954 C80.8668537,22.5820954 79.9083026,22.4952411 79.9083026,23.4506375 C79.9083026,24.058617 80.3440076,24.2323254 80.9539947,24.2323254 C81.1282767,24.2323254 82.5225328,24.3191796 82.6968148,24.3191796 Z" id="Shape" fill="#2287C8"></path>
                                    <path d="M73.1984451,24.3191796 C76.2483803,24.492888 76.5098034,26.0562639 76.5098034,27.6196397 C76.5098034,29.5304324 74.9412653,30.5726829 73.2855861,30.5726829 L67.9699848,30.5726829 L67.9699848,28.4013276 L72.0656121,28.4013276 C72.7627401,28.4013276 73.8084322,28.4013276 73.8084322,27.4459313 C73.8084322,27.0116602 73.6341502,26.6642434 72.8498811,26.5773892 C72.5013171,26.4905349 71.281343,26.4905349 71.107061,26.4905349 C68.3185488,26.4036807 67.7085617,25.0140133 67.7085617,23.3637833 C67.7085617,21.4529906 69.0156768,20.41074 70.671356,20.41074 L75.9869573,20.41074 L75.9869573,22.5820954 L72.1527531,22.5820954 C71.281343,22.5820954 70.3227919,22.4952411 70.3227919,23.4506375 C70.3227919,24.058617 70.758497,24.2323254 71.368484,24.2323254 C71.629907,24.2323254 73.0241631,24.3191796 73.1984451,24.3191796 Z" id="Shape" fill="#2287C8"></path>
                                    <path d="M43.483362,20.41074 L34.6821204,20.41074 L31.8064672,23.5374917 L29.017955,20.3238858 L19.0838803,20.3238858 L19.0838803,30.4858287 L28.669391,30.4858287 L31.7193262,27.0985144 L34.6821204,30.4858287 L39.4748758,30.4858287 L39.4748758,27.0116602 L42.873375,27.0116602 C44.1804901,27.0116602 46.5332973,26.924806 46.5332973,23.3637833 C46.4461563,20.9318653 44.7033361,20.41074 43.483362,20.41074 Z M27.3622759,28.4013276 L21.6109695,28.4013276 L21.6109695,26.4036807 L27.1879939,26.4036807 L27.1879939,24.492888 L21.6109695,24.492888 L21.6109695,22.5820954 L27.7108399,22.5820954 L30.1507881,25.3614302 L27.3622759,28.4013276 Z M36.9477866,29.6172866 L33.3750053,25.3614302 L36.9477866,21.3661364 L36.9477866,29.6172866 Z M42.611952,25.0140133 L39.4748758,25.0140133 L39.4748758,22.5820954 L42.611952,22.5820954 C43.6576441,22.5820954 44.0062081,23.2769291 44.0062081,23.7112001 C44.0062081,24.4060338 43.6576441,25.0140133 42.611952,25.0140133 Z" id="Shape" fill="#2287C8"></path>
                                    <path d="M55.5959619,25.9694097 C56.990218,25.274576 57.338782,24.4060338 57.338782,23.1900749 C57.338782,21.0187195 55.5959619,20.4975943 54.2888468,20.4975943 L47.7532713,20.4975943 L47.7532713,30.6595372 L50.2803605,30.6595372 L50.2803605,27.0985144 L53.5917188,27.0985144 C54.4631288,27.0985144 54.8116928,27.9670566 54.8116928,28.8355987 L54.8988338,30.7463914 L57.338782,30.7463914 L57.251641,28.6618903 C57.251641,26.8379518 56.728795,26.0562639 55.5959619,25.9694097 Z M53.4174367,24.9271591 L50.2803605,24.9271591 L50.2803605,22.5820954 L53.4174367,22.5820954 C54.4631288,22.5820954 54.8116928,23.2769291 54.8116928,23.7112001 C54.8116928,24.4060338 54.4631288,24.9271591 53.4174367,24.9271591 Z" id="Shape" fill="#2287C8"></path>
                                    <polygon id="Rectangle-path" fill="#2287C8" points="48.7989634 2.77933481 51.3260526 2.77933481 51.3260526 13.0281319 48.7989634 13.0281319"></polygon>
                                    <polygon id="Shape" fill="#2287C8" points="28.233686 2.77933481 36.4249406 2.77933481 36.4249406 4.95069014 30.7607752 4.95069014 30.7607752 6.86148282 36.2506585 6.86148282 36.2506585 8.85912972 30.7607752 8.85912972 30.7607752 10.8567766 36.4249406 10.8567766 36.4249406 12.9412777 28.233686 12.9412777"></polygon>
                                    <path d="M45.7490282,8.33800444 C47.1432843,7.64317074 47.4918483,6.77462861 47.4918483,5.55866963 C47.4918483,3.3873143 45.7490282,2.86618903 44.4419131,2.86618903 L37.9063377,2.86618903 L37.9063377,13.0281319 L40.4334268,13.0281319 L40.4334268,9.46710921 L43.7447851,9.46710921 C44.6161951,9.46710921 44.9647592,10.3356513 44.9647592,11.2041935 L45.0519002,13.1149862 L47.4918483,13.1149862 L47.4047073,11.030485 C47.4047073,9.20654657 46.8818613,8.42485865 45.7490282,8.33800444 Z M43.5705031,7.29575389 L40.4334268,7.29575389 L40.4334268,4.95069014 L43.5705031,4.95069014 C44.6161951,4.95069014 44.9647592,5.64552384 44.9647592,6.0797949 C44.9647592,6.77462861 44.6161951,7.29575389 43.5705031,7.29575389 Z" id="Shape" fill="#2287C8"></path>
                                    <path d="M22.3952386,2.77933481 L19.3453034,9.64081763 L16.2953681,2.77933481 L12.3740229,2.77933481 L12.3740229,12.5938609 L8.01697256,2.77933481 L4.70561433,2.77933481 L0.261423018,12.9412777 L2.8756532,12.9412777 L3.83420427,10.6830682 L8.88838262,10.6830682 L9.84693369,12.9412777 L14.813971,12.9412777 L14.813971,5.3849612 L18.2124703,12.9412777 L20.4781364,12.9412777 L23.8766357,5.47181541 L23.8766357,12.9412777 L26.4037249,12.9412777 L26.4037249,2.77933481 L22.3952386,2.77933481 Z M4.70561433,8.51171287 L6.18701143,4.95069014 L7.75554954,8.51171287 L4.70561433,8.51171287 L4.70561433,8.51171287 Z" id="Shape" fill="#2287C8"></path>
                                    <path d="M77.2069314,2.77933481 L77.2069314,9.81452606 L72.9370221,2.77933481 L69.1899589,2.77933481 L69.1899589,12.3332982 L64.9200496,2.77933481 L61.6086913,2.77933481 L58.1230511,10.6830682 C58.1230511,10.6830682 56.641654,10.6830682 56.554513,10.6830682 C55.9445259,10.596214 54.9859749,10.1619429 54.9859749,8.33800444 L54.9859749,7.55631652 C54.9859749,5.12439856 56.2930899,4.95069014 57.9487691,4.95069014 L59.5173072,4.95069014 L59.5173072,2.6924806 L56.2059489,2.6924806 C55.0731159,2.6924806 52.5460267,3.56102273 52.4588857,7.73002495 C52.3717447,10.5093598 53.5917188,12.8544235 56.380231,12.8544235 L59.6915892,12.8544235 L60.6501403,10.596214 L65.7043186,10.596214 L66.6628697,12.8544235 L71.629907,12.8544235 L71.629907,5.3849612 L76.1612393,12.8544235 L79.5597386,12.8544235 L79.5597386,2.77933481 L77.2069314,2.77933481 Z M61.7829733,8.51171287 L63.2643704,4.95069014 L64.8329085,8.51171287 L61.7829733,8.51171287 L61.7829733,8.51171287 Z" id="Shape" fill="#2287C8"></path>
                                </g>
                            </g>
                        </g>
                    </g>
                </g>
            </g>
        </g>
    </g>
</svg>