<?xml version="1.0" encoding="UTF-8"?>
<svg width="45px" height="35px" viewBox="0 0 45 35" version="1.1" xmlns="http://www.w3.org/2000/svg" xmlns:xlink="http://www.w3.org/1999/xlink">
    <!-- Generator: Sketch 63.1 (92452) - https://sketch.com -->
    <title>Maestro_2016</title>
    <desc>Created with Sketch.</desc>
    <g id="Dashboard" stroke="none" stroke-width="1" fill="none" fill-rule="evenodd">
        <g id="2.1.-HostShield---Sign-Up-(Payment)" transform="translate(-536.000000, -711.000000)" fill-rule="nonzero">
            <g id="Group-2" transform="translate(100.000000, 699.000000)">
                <g id="methods">
                    <g id="cards" transform="translate(0.000000, 11.000000)">
                        <g id="maestro" transform="translate(406.000000, 0.000000)">
                            <g id="Maestro_2016" transform="translate(30.000000, 0.000000)">
                                <g id="Group" transform="translate(43.150970, 22.980818) scale(-1, 1) rotate(-180.000000) translate(-43.150970, -22.980818) translate(42.291364, 22.480818)" fill="#0099DF">
                                    <path d="M1.71921094,-5.55111512e-17 L1.71921094,0.61 L1.58253367,0.61 L1.42436626,0.191 L1.26705846,0.61 L1.12952159,0.61 L1.12952159,-5.55111512e-17 L1.226657,-5.55111512e-17 L1.226657,0.46 L1.37450914,0.063 L1.47508298,0.063 L1.62293513,0.461 L1.62293513,-5.55111512e-17 L1.71921094,-5.55111512e-17 Z M0.85186902,0 L0.85186902,0.506 L1.02722854,0.506 L1.02722854,0.609 L0.580233691,0.609 L0.580233691,0.506 L0.755593207,0.506 L0.755593207,0 L0.85186902,0 Z" id="Shape"></path>
                                </g>
                                <polygon id="Path" fill="#464646" points="28.4689081 25.596028 16.6393615 25.596028 16.6393615 4.33626552 28.4689081 4.33626552"></polygon>
                                <g id="Group" transform="translate(11.705080, 14.718115) scale(-1, 1) rotate(-180.000000) translate(-11.705080, -14.718115) translate(0.205080, 0.718115)" fill="#000000">
                                    <path d="M17.1921094,13.7536875 C17.1921094,18.0663281 19.2113226,21.907905 22.3557594,24.3835687 C20.0563148,26.1938978 17.1542867,27.2744219 14.0003943,27.2744219 C6.53386117,27.2744219 0.481379062,21.2210802 0.481379062,13.7536875 C0.481379062,6.28629479 6.53386117,0.232953082 14.0003943,0.232953082 C17.1542867,0.232953082 20.0563148,1.31347716 22.3557594,3.12380627 C19.2113226,5.59947002 17.1921094,9.44104686 17.1921094,13.7536875" id="Path"></path>
                                </g>
                                <g id="Group" transform="translate(33.573443, 14.718115) scale(-1, 1) rotate(-180.000000) translate(-33.573443, -14.718115) translate(22.073443, 0.718115)" fill="#000000">
                                    <path d="M22.3497422,13.7536875 C22.3497422,6.28629479 16.2972601,0.232953082 8.83072698,0.232953082 C5.67683452,0.232953082 2.77480645,1.31347716 0.474502219,3.12380627 C3.61979863,5.59947002 5.63901188,9.44104686 5.63901188,13.7536875 C5.63901188,18.0663281 3.61979863,21.907905 0.474502219,24.3835687 C2.77480645,26.1938978 5.67683452,27.2744219 8.83072698,27.2744219 C16.2972601,27.2744219 22.3497422,21.2210802 22.3497422,13.7536875" id="Path"></path>
                                </g>
                                <g id="Group" transform="translate(22.572015, 32.888921) scale(-1, 1) rotate(-180.000000) translate(-22.572015, -32.888921) translate(7.528919, 29.880302)" fill="#231F20">
                                    <path d="M24.9285586,4.29802734 C25.0858664,4.29802734 25.3119426,4.26794115 25.4847233,4.20003232 L25.2440338,3.46421004 C25.0789896,3.53211887 24.9139453,3.55446861 24.7557779,3.55446861 C24.2451722,3.55446861 23.9898694,3.22438011 23.9898694,2.63125234 L23.9898694,0.618056332 L23.2084881,0.618056332 L23.2084881,4.20776877 L23.982133,4.20776877 L23.982133,3.7719488 C24.1849999,4.087424 24.4781253,4.29802734 24.9285586,4.29802734 M22.0420034,3.49429623 L20.7654893,3.49429623 L20.7654893,1.87222071 C20.7654893,1.51204602 20.8927109,1.27135649 21.2838314,1.27135649 C21.4866983,1.27135649 21.7420011,1.33926532 21.9740946,1.47422338 L22.1993112,0.80630993 C21.9517449,0.63352923 21.561484,0.527797758 21.223659,0.527797758 C20.2995831,0.527797758 19.9772311,1.02379011 19.9772311,1.85760742 L19.9772311,3.49429623 L19.2482857,3.49429623 L19.2482857,4.20776877 L19.9772311,4.20776877 L19.9772311,5.2968889 L20.7654893,5.2968889 L20.7654893,4.20776877 L22.0420034,4.20776877 L22.0420034,3.49429623 Z M12.0456514,2.72838776 C12.1290332,3.24672986 12.4436488,3.6000277 12.9998135,3.6000277 C13.5026827,3.6000277 13.8258944,3.2845525 13.9084165,2.72838776 L12.0456514,2.72838776 Z M14.719884,2.41291255 C14.7121476,3.53211887 14.0210248,4.29802734 13.0144268,4.29802734 C11.9631293,4.29802734 11.227307,3.53211887 11.227307,2.41291255 C11.227307,1.27221609 11.9932155,0.528657363 13.0677223,0.528657363 C13.6084142,0.528657363 14.1035469,0.663615422 14.5393669,1.03152656 L14.1559829,1.61004104 C13.8559806,1.36935151 13.4725965,1.23439345 13.1124218,1.23439345 C12.6095526,1.23439345 12.1513829,1.46734654 12.0387746,2.11291024 L14.7044111,2.11291024 C14.7121476,2.21090527 14.719884,2.30804068 14.719884,2.41291255 M18.1514291,3.29142934 C17.9339489,3.427247 17.4912521,3.6000277 17.0330824,3.6000277 C16.6049988,3.6000277 16.349696,3.4418603 16.349696,3.17882102 C16.349696,2.9389911 16.6196121,2.87108227 16.9574371,2.82638278 L17.3253482,2.77394685 C18.1067296,2.66047893 18.5795126,2.33039043 18.5795126,1.69944001 C18.5795126,1.01605366 17.9786484,0.527797758 16.9428238,0.527797758 C16.3565729,0.527797758 15.815881,0.678228715 15.3877975,0.993703922 L15.7557086,1.60230459 C16.0187479,1.3994377 16.4098684,1.226657 16.9505602,1.226657 C17.4835156,1.226657 17.7689046,1.3839648 17.7689046,1.66247698 C17.7689046,1.86448426 17.5660378,1.97795218 17.1379542,2.03726496 L16.7700431,2.08970089 C15.966312,2.20316882 15.530492,2.56334351 15.530492,3.14873483 C15.530492,3.86220737 16.1167429,4.29802734 17.0253459,4.29802734 C17.5961239,4.29802734 18.114466,4.16994613 18.489254,3.92237975 L18.1514291,3.29142934 Z M27.7833084,3.55618782 C27.6225621,3.55618782 27.4738504,3.52782084 27.3354539,3.47194649 C27.197917,3.41521253 27.0784319,3.33612882 26.977858,3.23469538 C26.8772842,3.13326193 26.7982005,3.01119796 26.7406069,2.86936305 C26.6830134,2.72752815 26.6546464,2.57107996 26.6546464,2.40087807 C26.6546464,2.22981659 26.6830134,2.074228 26.7406069,1.93239309 C26.7982005,1.79055819 26.8772842,1.66849421 26.977858,1.56706077 C27.0784319,1.46562732 27.197917,1.38654362 27.3354539,1.32980966 C27.4738504,1.2730757 27.6225621,1.24556832 27.7833084,1.24556832 C27.9440546,1.24556832 28.0936259,1.2730757 28.2311628,1.32980966 C28.3695593,1.38654362 28.4899041,1.46562732 28.5904779,1.56706077 C28.6927709,1.66849421 28.7718546,1.79055819 28.8303078,1.93239309 C28.8879014,2.074228 28.9162684,2.22981659 28.9162684,2.40087807 C28.9162684,2.57107996 28.8879014,2.72752815 28.8303078,2.86936305 C28.7718546,3.01119796 28.6927709,3.13326193 28.5904779,3.23469538 C28.4899041,3.33612882 28.3695593,3.41521253 28.2311628,3.47194649 C28.0936259,3.52782084 27.9440546,3.55618782 27.7833084,3.55618782 M27.7833084,4.29802734 C28.0618205,4.29802734 28.3197022,4.24988944 28.5569533,4.15275402 C28.7942044,4.05647821 28.9996501,3.92323936 29.1724308,3.75389708 C29.3460711,3.5845548 29.4810292,3.38426673 29.5790242,3.15389246 C29.6770192,2.92265859 29.7260167,2.6716538 29.7260167,2.40087807 C29.7260167,2.13010235 29.6770192,1.87909755 29.5790242,1.64786368 C29.4810292,1.41748942 29.3460711,1.21634174 29.1724308,1.04699946 C28.9996501,0.877657184 28.7942044,0.745277941 28.5569533,0.648142523 C28.3197022,0.551866711 28.0618205,0.503728805 27.7833084,0.503728805 C27.5047962,0.503728805 27.2469145,0.551866711 27.0096634,0.648142523 C26.7724123,0.745277941 26.5686858,0.877657184 26.3967647,1.04699946 C26.2248436,1.21634174 26.0898856,1.41748942 25.9918906,1.64786368 C25.8938955,1.87909755 25.844898,2.13010235 25.844898,2.40087807 C25.844898,2.6716538 25.8938955,2.92265859 25.9918906,3.15389246 C26.0898856,3.38426673 26.2248436,3.5845548 26.3967647,3.75389708 C26.5686858,3.92323936 26.7724123,4.05647821 27.0096634,4.15275402 C27.2469145,4.24988944 27.5047962,4.29802734 27.7833084,4.29802734 M7.48286561,2.41291255 C7.48286561,3.04386296 7.89633584,3.56220506 8.57198573,3.56220506 C9.21754944,3.56220506 9.65336941,3.06621271 9.65336941,2.41291255 C9.65336941,1.75961239 9.21754944,1.26447964 8.57198573,1.26447964 C7.89633584,1.26447964 7.48286561,1.78196214 7.48286561,2.41291255 M10.3891917,2.41291255 L10.3891917,4.20776877 L9.60866993,4.20776877 L9.60866993,3.7719488 C9.36024395,4.09516045 8.98545596,4.29802734 8.47485032,4.29802734 C7.46825231,4.29802734 6.6799941,3.50976913 6.6799941,2.41291255 C6.6799941,1.31691558 7.46825231,0.527797758 8.47485032,0.527797758 C8.98545596,0.527797758 9.36024395,0.730664648 9.60866993,1.0538763 L9.60866993,0.618056332 L10.3891917,0.618056332 L10.3891917,2.41291255 Z M5.9888713,0.618056332 L5.9888713,2.87108227 C5.9888713,3.71951286 5.44817946,4.29029089 4.57739912,4.29802734 C4.11922941,4.30576379 3.64558679,4.16306929 3.31549829,3.65934048 C3.06793192,4.05733781 2.67681143,4.29802734 2.12838314,4.29802734 C1.74585871,4.29802734 1.37021112,4.18541903 1.07708565,3.76507195 L1.07708565,4.20776877 L0.296563887,4.20776877 L0.296563887,0.618056332 L1.0848221,0.618056332 L1.0848221,2.60804299 C1.0848221,3.23125696 1.4303835,3.56220506 1.96333889,3.56220506 C2.48168099,3.56220506 2.74472026,3.22438011 2.74472026,2.61577944 L2.74472026,0.618056332 L3.53297848,0.618056332 L3.53297848,2.60804299 C3.53297848,3.23125696 3.89401277,3.56220506 4.41149527,3.56220506 C4.94531026,3.56220506 5.20061309,3.22438011 5.20061309,2.61577944 L5.20061309,0.618056332 L5.9888713,0.618056332 Z" id="Shape"></path>
                                </g>
                                <g id="Group" transform="translate(38.096489, 35.010427) scale(-1, 1) rotate(-180.000000) translate(-38.096489, -35.010427) translate(37.236884, 34.150822)" fill="#231F20">
                                    <path d="M0.909305133,0.934997332 L0.909305133,0.831997332 L1.00430513,0.831997332 C1.02530513,0.831997332 1.04330513,0.836997332 1.05530513,0.844997332 C1.06830513,0.852997332 1.07530513,0.866997332 1.07530513,0.883997332 C1.07530513,0.900997332 1.06830513,0.913997332 1.05530513,0.921997332 C1.04330513,0.930997332 1.02530513,0.934997332 1.00430513,0.934997332 L0.909305133,0.934997332 Z M1.00530513,1.00699733 C1.05430513,1.00699733 1.09230513,0.995997332 1.11930513,0.973997332 C1.14630513,0.951997332 1.15930513,0.921997332 1.15930513,0.883997332 C1.15930513,0.851997332 1.14930513,0.825997332 1.12730513,0.804997332 C1.10630513,0.784997332 1.07530513,0.771997332 1.03630513,0.766997332 L1.16230513,0.621997332 L1.06430513,0.621997332 L0.947305133,0.765997332 L0.909305133,0.765997332 L0.909305133,0.621997332 L0.827305133,0.621997332 L0.827305133,1.00699733 L1.00530513,1.00699733 Z M0.980305133,0.489997332 C1.02530513,0.489997332 1.06730513,0.497997332 1.10530513,0.514997332 C1.14430513,0.531997332 1.17830513,0.554997332 1.20730513,0.583997332 C1.23630513,0.612997332 1.25930513,0.646997332 1.27630513,0.686997332 C1.29230513,0.725997332 1.30130513,0.767997332 1.30130513,0.812997332 C1.30130513,0.857997332 1.29230513,0.899997332 1.27630513,0.938997332 C1.25930513,0.977997332 1.23630513,1.01299733 1.20730513,1.04199733 C1.17830513,1.07099733 1.14430513,1.09399733 1.10530513,1.10999733 C1.06730513,1.12699733 1.02530513,1.13499733 0.980305133,1.13499733 C0.935305133,1.13499733 0.892305133,1.12699733 0.853305133,1.10999733 C0.813305133,1.09399733 0.778305133,1.07099733 0.749305133,1.04199733 C0.720305133,1.01299733 0.697305133,0.977997332 0.681305133,0.938997332 C0.664305133,0.899997332 0.656305133,0.857997332 0.656305133,0.812997332 C0.656305133,0.767997332 0.664305133,0.725997332 0.681305133,0.686997332 C0.697305133,0.646997332 0.720305133,0.612997332 0.749305133,0.583997332 C0.778305133,0.554997332 0.813305133,0.531997332 0.853305133,0.514997332 C0.892305133,0.497997332 0.935305133,0.489997332 0.980305133,0.489997332 M0.980305133,1.22799733 C1.03930513,1.22799733 1.09330513,1.21699733 1.14430513,1.19499733 C1.19630513,1.17399733 1.24030513,1.14399733 1.27930513,1.10599733 C1.31730513,1.06899733 1.34730513,1.02499733 1.36930513,0.973997332 C1.39130513,0.923997332 1.40230513,0.869997332 1.40230513,0.812997332 C1.40230513,0.755997332 1.39130513,0.701997332 1.36930513,0.651997332 C1.34730513,0.601997332 1.31730513,0.557997332 1.27930513,0.520997332 C1.24030513,0.482997332 1.19630513,0.452997332 1.14430513,0.430997332 C1.09330513,0.408997332 1.03930513,0.397997332 0.980305133,0.397997332 C0.920305133,0.397997332 0.865305133,0.408997332 0.813305133,0.430997332 C0.761305133,0.452997332 0.716305133,0.482997332 0.678305133,0.520997332 C0.640305133,0.557997332 0.610305133,0.601997332 0.588305133,0.651997332 C0.566305133,0.701997332 0.555305133,0.755997332 0.555305133,0.812997332 C0.555305133,0.869997332 0.566305133,0.923997332 0.588305133,0.973997332 C0.610305133,1.02499733 0.640305133,1.06899733 0.678305133,1.10599733 C0.716305133,1.14399733 0.761305133,1.17399733 0.813305133,1.19499733 C0.865305133,1.21699733 0.920305133,1.22799733 0.980305133,1.22799733" id="Shape"></path>
                                </g>
                            </g>
                        </g>
                    </g>
                </g>
            </g>
        </g>
    </g>
</svg>