<?xml version="1.0" encoding="UTF-8"?>
<svg width="45px" height="35px" viewBox="0 0 45 35" version="1.1" xmlns="http://www.w3.org/2000/svg" xmlns:xlink="http://www.w3.org/1999/xlink">
    <!-- Generator: Sketch 63.1 (92452) - https://sketch.com -->
    <title>mastercard-2</title>
    <desc>Created with Sketch.</desc>
    <g id="Dashboard" stroke="none" stroke-width="1" fill="none" fill-rule="evenodd">
        <g id="2.1.-HostShield---Sign-Up-(Payment)" transform="translate(-397.000000, -819.000000)" fill-rule="nonzero">
            <g id="mastercard-2" transform="translate(397.000000, 819.000000)">
                <path d="M44.0723507,34.5033084 L44.0723507,34.6022288 L44.1561978,34.6022288 C44.1719377,34.6025064 44.1874591,34.5981521 44.2011561,34.5896164 C44.2122545,34.5809747 44.2186043,34.5667239 44.2180154,34.5517794 C44.2185916,34.5371097 44.2122096,34.5231612 44.2011561,34.5149316 C44.1876153,34.5059766 44.171983,34.5015912 44.1561978,34.5023192 L44.0723507,34.5023192 L44.0723507,34.5033084 Z M44.157097,34.4395954 C44.1930362,34.4373873 44.2286285,34.4477154 44.2578035,34.4688182 C44.281522,34.4882454 44.2946175,34.517773 44.2930957,34.5483943 C44.2941766,34.5746916 44.2838521,34.6001753 44.264772,34.6183044 C44.2422692,34.637869 44.2140356,34.6496198 44.1842967,34.6517983 L44.2966924,34.7799294 L44.2101477,34.7799294 L44.1067437,34.6526975 L44.0732498,34.6526975 L44.0732498,34.7799294 L44.0008671,34.7799294 L44.0008671,34.4398202 L44.1582209,34.4398202 L44.157097,34.4395954 Z M44.1346179,34.8972704 C44.1725806,34.8976277 44.2101913,34.8899677 44.2449904,34.8747913 C44.2785422,34.8603484 44.3090527,34.8396775 44.3349069,34.8138728 C44.3608101,34.7881002 44.3814947,34.7575694 44.3958253,34.7239563 C44.425324,34.6527078 44.425324,34.5726615 44.3958253,34.501413 C44.3812837,34.4679154 44.3606246,34.4374223 44.3349069,34.4114965 C44.3090423,34.3857044 44.2785343,34.3650352 44.2449904,34.350578 C44.2099819,34.3362276 44.1724513,34.3290425 44.1346179,34.3294477 C44.0961328,34.3290901 44.0579498,34.3362684 44.0222222,34.350578 C43.9879262,34.3647506 43.9567035,34.3854385 43.9302826,34.4114965 C43.8489928,34.4948798 43.8253679,34.6187556 43.8702633,34.7262042 C43.8839529,34.7599429 43.9043749,34.7905377 43.9302826,34.8161207 C43.9567178,34.842161 43.9879369,34.8628465 44.0222222,34.8770392 C44.0577353,34.8922063 44.096003,34.8998598 44.1346179,34.8995183 M44.1346179,34.2476236 C44.2334115,34.2475235 44.3282819,34.2862791 44.3987476,34.3555234 C44.4327221,34.3887715 44.4597688,34.4284246 44.4783237,34.4721901 C44.5171473,34.5630017 44.5171473,34.6657395 44.4783237,34.7565511 C44.4593325,34.8000769 44.4323398,34.839651 44.3987476,34.8732177 C44.3642587,34.9062877 44.3241404,34.9329317 44.2802826,34.9518947 C44.234227,34.9714621 44.184657,34.9814067 44.1346179,34.9811175 C44.08399,34.9814813 44.0338177,34.9715386 43.9871548,34.9518947 C43.942792,34.9333731 43.9023022,34.9066849 43.8677906,34.8732177 C43.8342002,34.8384217 43.8075716,34.797525 43.7893385,34.7527296 C43.7505148,34.6619181 43.7505148,34.5591802 43.7893385,34.4683687 C43.8078934,34.4246032 43.83494,34.3849501 43.8689146,34.351702 C43.9029587,34.317657 43.9435693,34.2908892 43.9882787,34.273025 C44.0349416,34.2533811 44.085114,34.2434384 44.1357418,34.2437926 M9.71457932,32.9341683 C9.71457932,32.2856455 10.1394348,31.7528902 10.833815,31.7528902 C11.4973988,31.7528902 11.945183,32.2627168 11.945183,32.9341683 C11.945183,33.6056198 11.4973988,34.1154464 10.833815,34.1154464 C10.1394348,34.1154464 9.71457932,33.5826911 9.71457932,32.9341683 M12.7016057,32.9341683 L12.7016057,31.088632 L11.8993256,31.088632 L11.8993256,31.5382145 C11.6448619,31.205973 11.2588953,30.9975915 10.7340077,30.9975915 C9.69996789,30.9975915 8.88847142,31.8086384 8.88847142,32.9350674 C8.88847142,34.0614965 9.6995183,34.8725434 10.7340077,34.8725434 C11.2586705,34.8725434 11.6448619,34.6639371 11.8993256,34.3319204 L11.8993256,34.7799294 L12.7007065,34.7799294 L12.7007065,32.9341683 L12.7016057,32.9341683 Z M39.8096339,32.9341683 C39.8096339,32.2856455 40.2344894,31.7528902 40.9290944,31.7528902 C41.5933526,31.7528902 42.0404624,32.2627168 42.0404624,32.9341683 C42.0404624,33.6056198 41.5933526,34.1154464 40.9290944,34.1154464 C40.2347142,34.1154464 39.8096339,33.5826911 39.8096339,32.9341683 M42.7975594,32.9341683 L42.7975594,29.6072575 L41.994605,29.6072575 L41.994605,31.5382145 C41.7401413,31.205973 41.3541747,30.9975915 40.8292871,30.9975915 C39.7952473,30.9975915 38.9837508,31.8086384 38.9837508,32.9350674 C38.9837508,34.0614965 39.7947977,34.8725434 40.8292871,34.8725434 C41.3541747,34.8725434 41.7401413,34.6639371 41.994605,34.3319204 L41.994605,34.7799294 L42.7975594,34.7799294 L42.7975594,32.9341683 Z M22.6589595,31.7149004 C23.1759794,31.7149004 23.5079961,32.0390495 23.5927425,32.6097945 L21.67842,32.6097945 C21.7640655,32.0770392 22.0875401,31.7149004 22.6591843,31.7149004 M22.6751445,30.9955684 C21.5938985,30.9955684 20.8374759,31.7823378 20.8374759,32.9330443 C20.8374759,34.1062299 21.6242453,34.8705202 22.7288696,34.8705202 C23.2845536,34.8705202 23.7934811,34.731824 24.2412653,34.3535003 L23.8481053,33.7589274 C23.5387925,34.0061978 23.1449583,34.144894 22.774727,34.144894 C22.2577071,34.144894 21.7869942,33.9054913 21.6712267,33.2412331 L24.4107579,33.2412331 C24.4186256,33.1414258 24.426718,33.0407193 24.426718,32.9328195 C24.4186256,31.7825626 23.707386,30.9953436 22.6746949,30.9953436 M32.3609505,32.9328195 C32.3609505,32.2842967 32.785806,31.7515414 33.4801863,31.7515414 C34.1437701,31.7515414 34.5915543,32.261368 34.5915543,32.9328195 C34.5915543,33.604271 34.1437701,34.1140976 33.4801863,34.1140976 C32.785806,34.1140976 32.3607258,33.5813423 32.3607258,32.9328195 M35.3477521,32.9328195 L35.3477521,31.088632 L34.5459216,31.088632 L34.5459216,31.5382145 C34.2905588,31.205973 33.9054913,30.9975915 33.3806037,30.9975915 C32.3465639,30.9975915 31.5350674,31.8086384 31.5350674,32.9350674 C31.5350674,34.0614965 32.3461143,34.8725434 33.3806037,34.8725434 C33.9054913,34.8725434 34.2905588,34.6639371 34.5459216,34.3319204 L34.5459216,34.7799294 L35.3479769,34.7799294 L35.3479769,32.9341683 L35.3477521,32.9328195 Z M27.8302826,32.9328195 C27.8302826,34.0520552 28.6094091,34.8702954 29.7985549,34.8702954 C30.3542389,34.8702954 30.7244701,34.7466602 31.1248234,34.4303789 L30.7395311,33.7818561 C30.4383109,33.9983301 30.1220295,34.1140976 29.7729287,34.1140976 C29.1324984,34.1062299 28.6615607,33.6431599 28.6615607,32.9328195 C28.6615607,32.2224791 29.1324984,31.7596339 29.7729287,31.7515414 C30.1211304,31.7515414 30.4374117,31.8673089 30.7395311,32.0837829 L31.1248234,31.4352601 C30.7237958,31.1189788 30.3535645,30.9953436 29.7985549,30.9953436 C28.6094091,30.9953436 27.8302826,31.813359 27.8302826,32.9328195 M38.1729287,30.9953436 C37.7100835,30.9953436 37.4086384,31.2118176 37.2002569,31.5359666 L37.2002569,31.088632 L36.4051702,31.088632 L36.4051702,34.7779062 L37.2083494,34.7779062 L37.2083494,32.7098266 C37.2083494,32.0992935 37.4706808,31.7600835 37.9951188,31.7600835 C38.1668523,31.7576047 38.3373768,31.7891579 38.4968529,31.8529223 L38.7441233,31.0967245 C38.5665382,31.0268144 38.3350032,30.996018 38.1724791,30.996018 M16.6680475,31.3819846 C16.2820809,31.1275209 15.7502248,30.996018 15.1635196,30.996018 C14.2288375,30.996018 13.6270713,31.444027 13.6270713,32.1770713 C13.6270713,32.7786127 14.0750803,33.1497431 14.9000642,33.2655106 L15.2790623,33.3194605 C15.7189788,33.3812781 15.9266859,33.4970456 15.9266859,33.7054271 C15.9266859,33.9906872 15.6344573,34.1534361 15.0857418,34.1534361 C14.5300578,34.1534361 14.1290302,33.975851 13.8586063,33.7674695 L13.4816313,34.3930636 C13.9215478,34.7172126 14.4772319,34.871869 15.0789981,34.871869 C16.1445087,34.871869 16.7620103,34.3701349 16.7620103,33.6676622 C16.7620103,33.0191394 16.2760116,32.6799294 15.4730572,32.5641618 L15.0949583,32.5093128 C14.7476557,32.4643545 14.4693642,32.3944444 14.4693642,32.1471741 C14.4693642,31.8774245 14.7316956,31.7151252 15.1718369,31.7151252 C15.6427746,31.7151252 16.0986513,31.8927103 16.3220938,32.0314066 L16.6693963,31.3828838 L16.6680475,31.3819846 Z M27.0199101,30.9966924 C26.5570649,30.9966924 26.2556198,31.2131663 26.0481374,31.5373154 L26.0481374,31.088632 L25.2530507,31.088632 L25.2530507,34.7779062 L26.0553308,34.7779062 L26.0553308,32.7098266 C26.0553308,32.0992935 26.3176622,31.7600835 26.8421002,31.7600835 C27.0138337,31.7576047 27.1843581,31.7891579 27.3438343,31.8529223 L27.5911047,31.0967245 C27.4135196,31.0268144 27.1819846,30.996018 27.0194605,30.996018 M20.1736673,31.088632 L18.8617855,31.088632 L18.8617855,29.9693963 L18.0507386,29.9693963 L18.0507386,31.088632 L17.3024085,31.088632 L17.3024085,31.8219011 L18.0507386,31.8219011 L18.0507386,33.5049133 C18.0507386,34.3609184 18.3829801,34.870745 19.3320488,34.870745 C19.6802505,34.870745 20.0812781,34.7628452 20.3357418,34.5854849 L20.103982,33.8985228 C19.8645793,34.037219 19.6022479,34.1071291 19.3936416,34.1071291 C18.992614,34.1071291 18.8617855,33.8598587 18.8617855,33.4896275 L18.8617855,31.8225755 L20.1736673,31.8225755 L20.1736673,31.088632 Z M8.17903019,34.7788054 L8.17903019,32.4634554 C8.17903019,31.59149 7.62334618,31.0047848 6.72755299,30.9969171 C6.25661529,30.9890495 5.77084136,31.1356134 5.43073218,31.6533076 C5.17626846,31.2441875 4.77524085,30.9969171 4.21146435,30.9969171 C3.81740527,30.9969171 3.43233783,31.1126846 3.13089274,31.5447335 L3.13089274,31.088632 L2.32793834,31.088632 L2.32793834,34.7779062 L3.1371869,34.7779062 L3.1371869,32.7323057 C3.1371869,32.0918754 3.4923571,31.7515414 4.04084778,31.7515414 C4.57360308,31.7515414 4.84312781,32.0988439 4.84312781,32.7242132 L4.84312781,34.7774566 L5.65417469,34.7774566 L5.65417469,32.7318561 C5.65417469,32.0914258 6.02440591,31.7510918 6.55693642,31.7510918 C7.10475273,31.7510918 7.36618497,32.0983943 7.36618497,32.7237636 L7.36618497,34.7770071 L8.17903019,34.7788054 Z" id="Shape" fill="#231F20"></path>
                <path d="M44.5298009,22.967052 L44.5298009,21.967052 L44.3893064,21.967052 L44.2267823,22.653302 L44.0651574,21.967052 L43.9242132,21.967052 L43.9242132,22.967052 L44.0240206,22.967052 L44.0240206,22.2137187 L44.1759794,22.8637187 L44.2793834,22.8637187 L44.4313423,22.212052 L44.4313423,22.967052 L44.5302505,22.967052 L44.5298009,22.967052 Z M43.6385035,22.967052 L43.6385035,22.138302 L43.8183365,22.138302 L43.8183365,21.969552 L43.3588632,21.969552 L43.3588632,22.138302 L43.5386962,22.138302 L43.5386962,22.967052 L43.6376044,22.967052 L43.6385035,22.967052 Z" id="Shape" fill="#F79410"></path>
                <polygon id="Path" fill="#FF5F00" points="28.5613038 24.8203276 16.4032434 24.8203276 16.4032434 2.97061657 28.5615286 2.97061657"></polygon>
                <path d="M17.1740527,13.8959216 C17.1740527,9.46371227 19.2493256,5.51547848 22.4811496,2.97106615 C20.0347706,1.0422382 17.009252,-0.00460281286 13.8941233,-1.51137732e-05 C6.22042389,-1.51137732e-05 0,6.22132306 0,13.8959216 C0,21.5705202 6.22042389,27.7918587 13.8941233,27.7918587 C17.009329,27.7964967 20.0349349,26.7496529 22.4811496,24.8207771 C19.2497752,22.2768144 17.1740527,18.3283558 17.1740527,13.8959216" id="Path" fill="#EB001B"></path>
                <path d="M44.9638728,13.8959216 C44.9638728,21.5705202 38.7434489,27.7918582 31.0697495,27.7918582 C27.9542146,27.7964155 24.928279,26.7495946 22.4815992,24.8207771 C25.7140976,22.2763648 27.7893706,18.3283558 27.7893706,13.8959216 C27.7893706,9.46348748 25.7140976,5.51547848 22.4815992,2.97106615 C24.9282185,1.04229648 27.9540669,-0.0045216071 31.0695247,-1.45865979e-05 C38.7432241,-1.45865979e-05 44.9638728,6.22132306 44.9638728,13.8959216" id="Path" fill="#F79E1B"></path>
            </g>
        </g>
    </g>
</svg>