<?xml version="1.0" encoding="UTF-8"?>
<svg width="79px" height="22px" viewBox="0 0 79 22" version="1.1" xmlns="http://www.w3.org/2000/svg" xmlns:xlink="http://www.w3.org/1999/xlink">
    <!-- Generator: Sketch 63.1 (92452) - https://sketch.com -->
    <title>paypal</title>
    <desc>Created with Sketch.</desc>
    <g id="Dashboard" stroke="none" stroke-width="1" fill="none" fill-rule="evenodd">
        <g id="2.1.-HostShield---Sign-Up-(Payment)" transform="translate(-654.000000, -773.000000)" fill-rule="nonzero">
            <g id="Group-2" transform="translate(100.000000, 699.000000)">
                <g id="methods">
                    <g id="cards" transform="translate(0.000000, 50.000000)">
                        <g id="paypal" transform="translate(526.000000, 0.000000)">
                            <g transform="translate(28.000000, 24.000000)">
                                <path d="M15.4713043,2.41554515 C15.1887625,1.84874916 14.7418328,1.3812709 14.1870234,1.03023411 C13.6082408,0.675772575 12.9250033,0.427478261 12.1441605,0.280214047 C11.3496187,0.136374582 10.431786,0.0713043478 9.36840134,0.0610301003 L4.45902341,0.0644548495 C3.94873579,0.0713043478 3.44872241,0.468575251 3.32885619,0.96173913 L0.0256856187,15.3491104 C-0.094180602,15.8354247 0.226033445,16.2429699 0.73632107,16.2429699 L3.08741137,16.2429699 C3.597699,16.2429699 4.1028495,15.8474114 4.21586622,15.3491104 L5.02239465,11.8558662 C5.13027425,11.3695518 5.63371237,10.9637191 6.14913712,10.9637191 L6.82210033,10.9637191 C9.69717726,10.9602943 11.9232642,10.3729498 13.5226221,9.19654849 C15.1305418,8.01843478 15.9233712,6.46188629 15.9233712,4.53375251 C15.9216589,3.68955184 15.7829565,2.98062876 15.4713043,2.41554515 Z M10.4009632,7.11601338 C9.69032776,7.63657525 8.70228763,7.89685619 7.42828094,7.89685619 L6.85292308,7.89685619 C6.34092308,7.89685619 6.02755853,7.49273579 6.13886288,6.99957191 L6.84607358,3.94469565 C6.9453913,3.45495652 7.46081605,3.04912375 7.96596656,3.05254849 L8.73653512,3.04741137 C9.63553177,3.04741137 10.322194,3.20323746 10.7811104,3.50461538 C11.2348896,3.80256856 11.4626355,4.27689632 11.4592107,4.90533779 C11.4729097,5.86084281 11.1081739,6.59545151 10.4009632,7.11601338 Z" id="Shape" fill="#243982"></path>
                                <path d="M26.8089365,4.47210702 C25.9219264,3.97209365 24.521204,3.72208696 22.6067692,3.72208696 C21.6598261,3.72208696 20.7163077,3.79571906 19.7625151,3.94298328 C19.0587291,4.05086288 18.9902341,4.07141137 18.5570033,4.16559197 C17.6631438,4.36080268 17.5227291,5.25294983 17.5227291,5.25294983 L17.2350502,6.43620067 C17.0723746,7.19135786 17.5073177,7.16224749 17.6888294,7.09888963 C18.0792508,6.98244816 18.2967224,6.86258194 19.094689,6.68449498 C19.8566957,6.51154515 20.6597993,6.38140468 21.2968027,6.38996656 C22.2368963,6.38996656 22.9560936,6.48928428 23.4355585,6.69134448 C23.9081739,6.89682943 24.1444816,7.2495786 24.1444816,7.75986622 L24.1033846,8.09206689 L23.7643344,8.30097659 C22.4303946,8.38488294 21.4663278,8.50817391 20.2967759,8.677699 C19.1529097,8.83694983 18.1494582,9.11606689 17.3155318,9.49792642 C16.4199599,9.89177258 15.7555585,10.4208963 15.291505,11.0938595 C14.8428629,11.7702475 14.6185418,12.5904749 14.6185418,13.5528294 C14.6185418,14.4586756 14.943893,15.2069833 15.5757592,15.7857659 C16.2110502,16.3542742 17.0501137,16.6316789 18.0535652,16.6316789 C18.6888562,16.6282542 19.1803077,16.5785953 19.5296321,16.494689 L20.6683612,16.1025552 L21.6324281,15.5682943 L22.5194381,14.9826622 L22.5314247,14.999786 L22.4423813,15.3765084 L22.4372441,15.3919197 L22.4372441,15.3953445 C22.3413512,15.8542609 22.6187559,16.2309833 23.0656856,16.275505 L23.0742475,16.2857793 L23.1153445,16.2857793 L24.9184749,16.2857793 L25.2575251,16.2857793 L25.2883478,16.2720803 C25.7575385,16.2172843 26.1976187,15.8405619 26.3003612,15.3919197 L28.0144482,7.97220067 L28.1034916,7.36773244 L28.144665,6.80093645 C28.1514381,5.74953846 27.6976589,4.97040803 26.8089365,4.47210702 Z M23.0177391,12.814796 L22.651291,13.2976856 L21.7266087,13.7754381 C21.2916656,13.9518127 20.8789833,14.0408562 20.4971237,14.0408562 C19.9183411,14.0408562 19.4645619,13.9569498 19.1580468,13.7857124 L18.7042676,12.9038395 C18.7042676,12.426087 18.8138595,12.0476522 19.0484548,11.7565485 L20.0450569,11.0784482 C20.4714381,10.9346087 20.992,10.8130301 21.5947559,10.7291237 C22.1324415,10.6623411 23.1941137,10.5407625 23.3328161,10.5373378 L23.4954916,10.8233043 C23.4629565,10.9859799 23.1615786,12.2462876 23.0177391,12.814796 Z" id="Shape" fill="#243982"></path>
                                <path d="M69.5121338,4.48238127 C68.6199866,3.98236789 67.2209766,3.73064883 65.3116789,3.73064883 C64.3647358,3.73064883 63.419505,3.80428094 62.4691371,3.95668227 C61.7636388,4.05942475 61.6934314,4.08168562 61.2584883,4.17415385 C60.3663411,4.36765217 60.2276388,5.26322408 60.2276388,5.26322408 L59.9399599,6.44476254 C59.7789967,7.19991973 60.2036656,7.16567224 60.402301,7.10745151 C60.7944348,6.99101003 61.0050569,6.87628094 61.7961739,6.69134448 C62.5547559,6.52010702 63.364709,6.3933913 64.0034247,6.39681605 C64.9400936,6.39681605 65.659291,6.49784615 66.1370435,6.69990635 C66.6130836,6.9053913 66.8459666,7.26156522 66.8459666,7.76671572 L66.8100067,8.09720401 L66.4743813,8.31125084 C65.1267425,8.39173244 64.1609632,8.51502341 63.003398,8.68454849 C61.8629565,8.84379933 60.8560803,9.12120401 60.0204415,9.50477592 C59.1282943,9.90033445 58.4553311,10.4294582 57.9964147,11.1041338 C57.5426355,11.7805217 57.3217391,12.5990368 57.3217391,13.5528294 C57.3217391,14.4655251 57.6436656,15.2138328 58.2840936,15.7891906 C58.9228094,16.3559866 59.753311,16.6402408 60.7567625,16.6402408 C61.3886288,16.6333913 61.8800803,16.5922943 62.2311171,16.5015385 L63.3664214,16.1145418 L64.3390502,15.5802809 L65.2192107,14.9877993 L65.2346221,15.0066355 L65.1541405,15.3867826 L65.1455786,15.3936321 L65.1490033,15.4004816 C65.0428361,15.859398 65.3219532,16.2395452 65.7740201,16.2806421 L65.7774448,16.289204 L65.8185418,16.289204 C66.1147826,16.289204 67.1387826,16.289204 67.6268094,16.289204 L67.95901,16.289204 L67.9949699,16.2772174 C68.4590234,16.220709 68.8973913,15.8439866 68.9949967,15.3902074 L70.7142207,7.98076254 L70.8049766,7.37286957 L70.8546403,6.8043612 C70.8563478,5.75638796 70.4077057,4.98068227 69.5121338,4.48238127 Z M65.7294983,12.8250702 L65.3476388,13.313097 L64.4315184,13.7874247 C63.9965753,13.962087 63.5821806,14.0528428 63.2071706,14.0528428 C62.6095518,14.0528428 62.1677592,13.9672241 61.869806,13.7959866 L61.4108896,12.9175385 C61.4108896,12.4380736 61.522194,12.0630635 61.7465151,11.7668227 C61.9742609,11.4877057 62.3218729,11.2582475 62.7533913,11.0904348 C63.1746355,10.9465953 63.6951973,10.8301538 64.3013779,10.7428227 C64.8356388,10.6760401 65.8938863,10.5510368 66.0308763,10.5493244 L66.1969766,10.835291 C66.1730033,10.9979666 65.869913,12.2531371 65.7294983,12.8250702 Z" id="Shape" fill="#009ADA"></path>
                                <path d="M58.1676522,2.46862876 C57.8731237,1.89840803 57.4313311,1.43777926 56.873097,1.0781806 C56.3011639,0.722006689 55.6230635,0.472 54.8302341,0.328160535 C54.0511037,0.189458194 53.1212843,0.114113712 52.0647492,0.112401338 L47.1485217,0.115826087 C46.6365217,0.12438796 46.1450702,0.521658863 46.0269164,1.00968562 L42.7203211,15.4039064 C42.6004548,15.8919331 42.9292308,16.2960535 43.4292441,16.2960535 L45.7837592,16.2926288 C46.2837726,16.2960535 46.7957726,15.8953579 46.9139264,15.402194 L47.7101806,11.9072375 C47.8266221,11.4209231 48.3317726,11.0116656 48.8403478,11.0150903 L49.513311,11.0150903 C52.3918127,11.0150903 54.6230368,10.4226087 56.2292441,9.24963211 C57.8166154,8.06295652 58.6197191,6.50983278 58.6197191,4.57998662 C58.6111572,3.7392107 58.4656054,3.02857525 58.1676522,2.46862876 Z M53.097311,7.17594649 C52.388388,7.68623411 51.3986355,7.9465627 50.1314783,7.9465627 L49.5458462,7.9465627 C49.0406957,7.95165217 48.7136321,7.54068227 48.8266488,7.05094314 L49.5389967,4.00120401 C49.6434515,3.51317726 50.1537391,3.10391973 50.6623144,3.10905686 L51.4243211,3.10391973 C52.3284548,3.10905686 53.0065552,3.25803344 53.4688963,3.55941137 C53.9295251,3.8607893 54.1469967,4.33340468 54.1521338,4.96013378 C54.1572709,5.9156388 53.8028094,6.65195987 53.097311,7.17594649 Z" id="Shape" fill="#009ADA"></path>
                                <path d="M78.3274381,1.12441472 C78.4353177,0.632963211 78.1270903,0.233979933 77.6219398,0.24074254 L75.5157191,0.24074254 C75.0842007,0.24074254 74.6954916,0.561043478 74.5054181,0.954889632 L74.3889766,1.13640134 L74.2828094,1.60216722 L71.3392375,14.9826622 L71.2433445,15.3936321 L71.2467692,15.4039064 C71.1491639,15.8439866 71.4197191,16.1761873 71.8375385,16.2395452 L71.8734983,16.289204 L74.0602007,16.289204 C74.4882943,16.289204 74.8907023,15.9638528 75.0739264,15.5631572 L75.1869431,15.3919197 L78.3342876,1.12612709 L78.3274381,1.12441472 Z" id="Path" fill="#009ADA"></path>
                                <path d="M42.7853913,3.90188629 C42.2288696,3.90873579 39.9668227,3.90188629 39.9668227,3.90188629 C39.4599599,3.90188629 38.8092575,4.31114381 38.4873311,4.79917057 C38.4873311,4.79917057 35.1208027,10.5767224 34.7937391,11.1572174 L34.4033177,11.1520803 L33.3553445,4.83855518 C33.238903,4.34196656 32.7200535,3.91729766 32.0744883,3.91729766 L29.9682676,3.92072241 C29.4614047,3.92072241 29.1497525,4.32484281 29.2644816,4.81800669 C29.2644816,4.81800669 30.8638395,13.9192776 31.1840535,16.0614582 C31.3330301,17.2429967 31.1652174,17.4536187 31.1652174,17.4536187 L29.0829699,21.0804281 C28.7747425,21.573592 28.9408428,21.976 29.4459933,21.976 L31.88099,21.9725753 C32.3878528,21.9725753 33.0539666,21.573592 33.3553445,21.0787157 L42.7220334,5.23582609 C42.7220334,5.23753846 43.6227425,3.88305017 42.7853913,3.90188629 Z" id="Path" fill="#243982"></path>
                            </g>
                        </g>
                    </g>
                </g>
            </g>
        </g>
    </g>
</svg>