<?xml version="1.0" encoding="UTF-8"?>
<svg width="73px" height="24px" viewBox="0 0 73 24" version="1.1" xmlns="http://www.w3.org/2000/svg" xmlns:xlink="http://www.w3.org/1999/xlink">
    <!-- Generator: Sketch 63.1 (92452) - https://sketch.com -->
    <title>visa</title>
    <desc>Created with Sketch.</desc>
    <g id="Dashboard" stroke="none" stroke-width="1" fill="none" fill-rule="evenodd">
        <g id="2.1.-HostShield---Sign-Up-(Payment)" transform="translate(-272.000000, -773.000000)" fill="#000000" fill-rule="nonzero">
            <g id="Group-2" transform="translate(100.000000, 699.000000)">
                <g id="methods">
                    <g id="cards" transform="translate(0.000000, 50.000000)">
                        <g id="visa" transform="translate(150.000000, 0.000000)">
                            <g transform="translate(22.000000, 23.000000)" id="Group">
                                <g transform="translate(0.095653, 0.645593)">
                                    <g id="Shape">
                                        <polygon points="31.514731 23.628692 25.6358362 23.628692 29.2980985 0.871550114 35.2733686 0.871550114"></polygon>
                                        <path d="M20.6243193,0.871550114 L15.0345506,16.5594522 L14.3599233,13.1700906 L14.3599233,13.1700906 L12.3360415,2.90516705 C12.3360415,2.90516705 12.1432908,0.871550114 9.54115708,0.871550114 L0.192750648,0.871550114 L0.0963753241,1.25890572 C0.0963753241,1.25890572 2.98763505,1.83993913 6.26439606,3.87355606 L11.3722882,23.628692 L17.540309,23.628692 L26.8887154,0.871550114 L20.6243193,0.871550114 Z"></path>
                                        <path d="M67.0772255,23.628692 L72.4742437,23.628692 L67.7518528,0.871550114 L63.0294619,0.871550114 C60.8128295,0.871550114 60.3309529,2.61465034 60.3309529,2.61465034 L51.5607984,23.7255309 L57.7288191,23.7255309 L58.9816983,20.3361693 L66.4989736,20.3361693 L67.0772255,23.628692 Z M60.6200788,15.5910632 L63.7040892,7.06923981 L65.438845,15.5910632 L60.6200788,15.5910632 Z"></path>
                                        <path d="M51.9462997,6.2945286 L52.8136776,1.35574462 C52.8136776,1.35574462 50.2115438,0.387355606 47.5130348,0.387355606 C44.621775,0.387355606 37.5863764,1.64626133 37.5863764,7.94078993 C37.5863764,13.8479629 45.7782789,13.9448018 45.7782789,16.9468078 C45.7782789,20.0456526 38.4537543,19.4646192 36.0443712,17.5278412 L35.1769933,22.660303 C35.1769933,22.660303 37.779127,23.9192087 41.8268906,23.9192087 C45.8746543,23.9192087 51.9462997,21.7887529 51.9462997,16.0752577 C51.9462997,10.1680847 43.6580218,9.58705126 43.6580218,7.06923981 C43.7543971,4.55142837 49.4405412,4.93878398 51.9462997,6.2945286 Z"></path>
                                    </g>
                                    <path d="M14.3599233,13.1700906 L12.3360415,2.90516705 C12.3360415,2.90516705 12.1432908,0.871550114 9.54115708,0.871550114 L0.192750648,0.871550114 L0.0963753241,1.25890572 C0.0963753241,1.25890572 4.52964023,2.22729474 8.86652981,5.71349519 C13.0106687,9.00601785 14.3599233,13.1700906 14.3599233,13.1700906 Z" id="Shape"></path>
                                </g>
                            </g>
                        </g>
                    </g>
                </g>
            </g>
        </g>
    </g>
</svg>