<?xml version="1.0" encoding="UTF-8" standalone="no"?>
<!DOCTYPE svg PUBLIC "-//W3C//DTD SVG 1.1//EN" "http://www.w3.org/Graphics/SVG/1.1/DTD/svg11.dtd">
<svg width="100%" height="100%" viewBox="0 0 600 600" version="1.1" xmlns="http://www.w3.org/2000/svg" xmlns:xlink="http://www.w3.org/1999/xlink" xml:space="preserve" xmlns:serif="http://www.serif.com/" style="fill-rule:evenodd;clip-rule:evenodd;stroke-linejoin:round;stroke-miterlimit:2;">
    <g transform="matrix(0.735822,0,0,0.735822,184.476,42.4624)">
        <path d="M140.084,179.337C149.48,170.441 164.644,170.441 174.04,179.337L455.314,448.479C364.274,638.231 159.25,748.77 156.947,750L156.721,749.874C147.325,744.666 -52.433,634.677 -141.559,448.127L140.084,179.337ZM156.855,303.364L155.584,303.376C113.71,304.047 77.12,330.711 65.506,369.18C53.775,408.037 70.344,449.614 106.175,471.237L60.102,603.435L253.884,603.435L207.811,471.237C243.755,449.625 260.37,407.944 248.555,369.022C236.741,330.099 199.347,303.325 156.855,303.364ZM156.947,-50C323.223,-50 533.269,98.849 533.269,98.849C533.269,98.849 543.682,218.307 485.906,375.592L174.132,79.167C169.644,74.863 163.542,72.444 157.177,72.444C150.813,72.444 144.71,74.863 140.222,79.167L-171.92,375.767C-229.604,218.439 -219.283,98.981 -219.283,98.981C-219.283,98.981 -13.418,-46.992 151.948,-49.954L156.947,-50Z" style="fill:rgb(156,45,31);fill-opacity:0.1;fill-rule:nonzero;"/>
    </g>
</svg>
